<svg id="svg2" xmlns="http://www.w3.org/2000/svg" width="665.48" height="599.88" viewBox="0 0 665.48 599.88"><defs><style>.cls-1,.cls-3,.cls-4,.cls-5,.cls-6,.cls-7{fill:none;}.cls-1,.cls-2,.cls-3,.cls-4,.cls-5,.cls-6,.cls-7,.cls-8,.cls-9{stroke:#000;}.cls-1,.cls-4{stroke-miterlimit:13.33;}.cls-1,.cls-7{stroke-width:4px;}.cls-2{fill:#fff;}.cls-2,.cls-3,.cls-5,.cls-6,.cls-7,.cls-8,.cls-9{stroke-linecap:round;stroke-linejoin:round;}.cls-2,.cls-3,.cls-4{stroke-width:2.67px;}.cls-5{stroke-width:1.33px;}.cls-6{stroke-width:1.33px;}.cls-8{stroke-width:3.76px;}.cls-9{stroke-width:2.23px;}</style></defs><g id="base-comp"><path id="path22" class="cls-1" d="M567.8,497.9c-7,28.7-20.9,53.2-49,65.7,0,0-140.2,57.9-183.3,58.2-30.8.2-258.3-49.9-258.3-49.9-.5-.1-1.1-.3-1.9-.5-31.3-8.5-49-33.7-52.2-38.4-3.9-5.7-12.4-18.6-14.8-36.9a70.31,70.31,0,0,1-.4-16c4.9-63.7,3.5-100.7,31-150.4,39.5-71.8,122-234.6,138-261.7,15.1-25.5,30.6-35.8,58-33.4L502,66.6c28.2,10.8,133.6,81.7,133.6,81.7,17.7,17.7,15.7,38.6,6.3,71C641.9,219.4,567.8,497.9,567.8,497.9Z" transform="translate(-5.62 -23.92)"/><path id="path26" class="cls-2" d="M76.7,389.4l215.7,31.3" transform="translate(-5.62 -23.92)"/><path id="path30" class="cls-2" d="M31,382.1l29.2,4.7" transform="translate(-5.62 -23.92)"/><path id="path34" class="cls-2" d="M36,513.9l61.2,11.8" transform="translate(-5.62 -23.92)"/><path id="path38" class="cls-2" d="M151.5,535.5l142.6,25" transform="translate(-5.62 -23.92)"/><path id="path42" class="cls-2" d="M110.4,527.8l26.1,4.9" transform="translate(-5.62 -23.92)"/><path id="path46" class="cls-3" d="M467.8,131.9c4.3-8.5,8.7-17.3,13.4-26.4" transform="translate(-5.62 -23.92)"/><path id="path50" class="cls-3" d="M313.2,532.7c2.1-33.4,2.4-85.2,13.6-108.9,35.5-75.4,50.3-110.4,109.9-229.9,2.3-4.7,18.6-39.2,23-48" transform="translate(-5.62 -23.92)"/><path id="path74" class="cls-2" d="M489.1,92.7l7.6-15" transform="translate(-5.62 -23.92)"/><path id="path58" class="cls-3" d="M342.4,621c-.9-1-11.5-6.3-17.7-19.8" transform="translate(-5.62 -23.92)"/><path id="path54" class="cls-3" d="M319.1,588.7c-2.1-4.2-7-29.2-5.9-37.6" transform="translate(-5.62 -23.92)"/></g><g id="screen"><path id="path62" class="cls-4" d="M344.5,310.1,113.8,280.5c-15.6-1.7-18.7-9-8.3-28.9l89.7-168c9-16.2,17.7-25,37.6-26.1.3,0,219.8,24.3,219.8,24.3,9.7,1.4,12.2,12.2,7.7,20.9L367,285.7C364.2,291.1,355.9,312.2,344.5,310.1Z" transform="translate(-5.62 -23.92)"/><path id="path66" class="cls-2" d="M306.3,85l16.1,1.7" transform="translate(-5.62 -23.92)"/><path id="path70" class="cls-2" d="M145.2,228.2l5.2-16" transform="translate(-5.62 -23.92)"/><path id="path78" class="cls-2" d="M331.7,88.2l127.9,14.5" transform="translate(-5.62 -23.92)"/><path id="path82" class="cls-3" d="M156.2,196.3c16.9-47,41.9-92.4,69-109.6,4.1-2.6,8.9-9.8,34.8-7.3,21.4,2.1,35.5,3.8,35.5,3.8" transform="translate(-5.62 -23.92)"/><path id="path86" class="cls-3" d="M141.7,284.3c-4.9-4.6-2.7-26.8.3-43.7" transform="translate(-5.62 -23.92)"/></g><g id="wood-lines"><path id="path1464" class="cls-5" d="M508.5,91.8c-10.8,6.1-3.7,25,5.9,33,8.2,6.9,27.5,18.4,31.6,8.5C553,116.5,524.4,82.9,508.5,91.8Z" transform="translate(-5.62 -23.92)"/><path id="path1466" class="cls-5" d="M480.7,110s38.4,47.9,63.5,44.2c28.6-4.2,10.7-58.1,10.7-58.1" transform="translate(-5.62 -23.92)"/><path id="path1468" class="cls-5" d="M514.9,100.2c-6.5,3.6-2.2,15,3.5,19.8,4.9,4.1,16.5,11.1,19,5.1,4.2-10-13-30.2-22.5-24.9Z" transform="translate(-5.62 -23.92)"/><path id="path1470" class="cls-5" d="M590.9,265.3c5.6-15.5-52.6-2.7-61.8,14.9-6.7,12.9,27,45.6,40.3,47.9C580.2,330.1,579.3,297.4,590.9,265.3Z" transform="translate(-5.62 -23.92)"/><path id="path1472" class="cls-5" d="M472.5,123.2s54.6,56.8,80.4,53.6c33-4,20.1-71.3,20.1-71.3" transform="translate(-5.62 -23.92)"/><path id="path1476" class="cls-5" d="M580.5,273.1c3.6-9.5-34-1.7-39.9,9.2-4.3,8,17.5,28.1,26,29.6C573.6,313,573,292.9,580.5,273.1Z" transform="translate(-5.62 -23.92)"/><path id="path1478" class="cls-5" d="M571.3,279.3c2-5.2-18.7-.9-21.9,5-2.4,4.4,9.6,15.4,14.3,16.2C567.5,301.2,567.2,290.2,571.3,279.3Z" transform="translate(-5.62 -23.92)"/><path id="path1480" class="cls-5" d="M601.7,376.4s-15-33.2-28.2-34c-14-.9,17.8,70.2,17.8,70.2" transform="translate(-5.62 -23.92)"/><path id="path1482" class="cls-5" d="M573.5,480.5s-39.1-84.3-54.5-67.9c-21,22.4,12.2,144.2,12.2,144.2" transform="translate(-5.62 -23.92)"/><path id="path2212" class="cls-5" d="M566.6,504.3s-22.5-59.5-35.7-60.4c-14-.9,15.9,99.7,15.9,99.7" transform="translate(-5.62 -23.92)"/><path id="path2942" class="cls-5" d="M483.5,191.2c-6.5,3.6-2.2,15,3.5,19.8,4.9,4.1,16.5,11.1,19,5.1,4.2-10.1-12.9-30.3-22.5-24.9Z" transform="translate(-5.62 -23.92)"/><path id="path2944" class="cls-5" d="M411,367.9c-6.4-3.9-14.2,5.5-15.5,12.8-1.2,6.3-1.5,19.8,4.9,19,10.8-1.2,20-26.1,10.6-31.8Z" transform="translate(-5.62 -23.92)"/><path id="path686" class="cls-5" d="M389.2,289.6s-25.6,193.2,11.6,141.3c75.8-105.9,86.8-16.6,89.2,55.6,1,29.9,20.5,80.6,20.5,80.6" transform="translate(-5.62 -23.92)"/><path id="path90" class="cls-6" d="M336.6,403.3c2.2,28.5,2.9,104.3,31.8,108.6,32.4,4.9,50.5-61.5,69.3-54.2,22.8,9-10.8,100.8,22,128.9" transform="translate(-5.62 -23.92)"/><path id="path94" class="cls-6" d="M362.3,349c2.2,28.5-10.3,123,18.5,127.3,32.4,4.9,56.6-65.3,75.4-57.9,22.8,9-4.7,104.9,26.3,159.4" transform="translate(-5.62 -23.92)"/><path id="path98" class="cls-6" d="M592.3,118.3c14,82.2-59.2,89.6-58.5,122.4s72.1-14.3,73.4,9.1c1.4,24.5-27.9,59.1,1.4,100" transform="translate(-5.62 -23.92)"/><path id="path1462" class="cls-6" d="M454.2,158.4c32.3,26.7,68.3,10.5,69,43.3s-21.1,63.9-19.8,87.3c1.4,24.5,63.9,103.3,76.7,169.4" transform="translate(-5.62 -23.92)"/><path id="path1474" class="cls-6" d="M614.8,133.3c-1.2,38.5-36.3,74.1-14.5,73.8,24.5-.4,23.5.9,29.3,56.8" transform="translate(-5.62 -23.92)"/><path id="path2956" class="cls-6" d="M405.9,259.4c.4,21.7,7.5,50.1,8.8,59,7.2,50.7,25.1,45,46,37.4,14.8-5.3,34.9,45.9,52.2,33,11.1-8.3,6.2-35.1-14.2-59.2-35.9-42.3,8.4-84.5-9.7-95.8-29.9-18.6-14-51.3-43.7-57.6" transform="translate(-5.62 -23.92)"/><path id="path2958" class="cls-5" d="M415,236.3c.2,12.7,10.2,57.6,13.5,73,3.8,17.5,9.1,39.3,28.2,22.4,9.2-8.1,40.4,49.3,41,26.1.5-20.4-35.5-46.3-30.2-71.6,3.1-14.7,15.3-44.1-1-46.7-19.8-3.1-10.7-43.7-28-47.4" transform="translate(-5.62 -23.92)"/><path id="path102" class="cls-6" d="M319.1,452.8c2.2,28.5,10.5,84.1,39.3,88.4,32.4,4.9,59.4-56.1,65.2-36.7S411,576.6,431,595.2" transform="translate(-5.62 -23.92)"/><path id="path106" class="cls-6" d="M418.7,601.2c-20.2-18.7-8.3-59.9-20-55.3-14,5.5-23.6,61.3-28.9,70.1" transform="translate(-5.62 -23.92)"/><path id="path110" class="cls-6" d="M340.2,618.2c16.8-40-14.9-44.3-26.4-96.4" transform="translate(-5.62 -23.92)"/><path id="path114" class="cls-6" d="M359.3,555c-10.3,5.3-4.2,35.7,0,37.3,6.4,2.3,11.6-8.2,11.8-22.4C371.2,558.8,365.5,551.9,359.3,555Z" transform="translate(-5.62 -23.92)"/><path id="path118" class="cls-6" d="M386.4,611.4c1.9-17.7,5-33.6,9.1-33.7s6.4,12.2,9.1,28.1" transform="translate(-5.62 -23.92)"/></g><g id="comp-wire"><path id="path2960" class="cls-7" d="M581,451.9s20.4,3.8,21.2,11.1c.9,9.5-3.5,17.2-8.3,18.7-6.3,1.9-20.8-2.3-20.8-2.3Z" transform="translate(-5.62 -23.92)"/><path id="path2962" class="cls-7" d="M598,480.6c25.5,8.5,49.9,21.1,70.3,31.2m.8-17.2c-14.1-4.3-47.1-25-66.5-30.1" transform="translate(-5.62 -23.92)"/></g><g id="sparkle"><path id="rect3877" class="cls-8" d="M56.8,60.8c15.3-11.8,17-19.2,23.3-35C87.9,45.4,95.9,52.4,108,59.1c-12.6,9.1-15.4,17.1-25.1,32C72.9,77.3,70.4,69.3,56.8,60.8Z" transform="translate(-5.62 -23.92)"/><path id="path3881" class="cls-9" d="M69.5,141.2c9.1-7,10.1-11.4,13.8-20.7,4.6,11.6,9.4,15.7,16.5,19.8-7.5,5.4-9.1,10.1-14.9,19C79,151,77.6,146.2,69.5,141.2Z" transform="translate(-5.62 -23.92)"/></g></svg>