<svg id="logo" viewBox="0 0 100 100"><defs></defs><path class="header" d="M1948.85,1051.37h-.23c0,.14,0,.28,0,.41-18.81,138.25-488.57,403.51-955,593.59,743.64-155,881.24-267.58,867.74-238.49A956.38,956.38,0,0,1,1678.33,1672c-.08.1-.18.18-.26.27-2,1.34-4,2.67-6.08,4-105,67.73-324.78,137.44-520.06,187.24,200.67-18.63,341.31-43.87,320.36-31.86a1053.75,1053.75,0,0,1-106,53c-147.74,63.95-460.79,70-506.6,63.15q-39-5.8-76.84-14.73l-.24-.06a940.92,940.92,0,0,1-175.15-59.93l0,0,474.74-77.5c-194,23.74-404.87,36.48-582.2,19.83A953.88,953.88,0,0,1,356.57,1706c-17.91-16.56,238.88-109.12,511.57-246.34,245.12-123.35,515.86-277.19,585.94-455.57,18.21-46.34,10.73-87.51,5.53-109.6C1410.37,685.36,1223.28,529.76,1000,529.76c-260.84,0-472.29,212.36-472.29,474.32a474.49,474.49,0,0,0,245.93,416.37c-171.8,72.33-344.11,138.41-515.67,179.41C127.83,1436.6,50,1229.47,50,1004.08,50,477.15,475.33,50,1000,50s950,427.15,950,954.08Q1950,1027.87,1948.85,1051.37Z" transform="translate(-50 -50)"/><circle class="cls-1" cx="950" cy="950" r="175.07"/></svg>