<?xml version="1.0" encoding="utf-8"?>
<!-- Generator: Adobe Illustrator 25.3.1, SVG Export Plug-In . SVG Version: 6.00 Build 0)  -->
<svg version="1.1" id="Layer_1" xmlns="http://www.w3.org/2000/svg" xmlns:xlink="http://www.w3.org/1999/xlink" x="0px" y="0px"
	 viewBox="0 0 360.2 366.1" style="enable-background:new 0 0 360.2 366.1;" xml:space="preserve">
<style type="text/css">
	.st0{fill:none;stroke:#282826;stroke-linecap:round;stroke-linejoin:round;}
	.st1{fill:#282826;}
	.st2{fill:none;stroke:#282826;stroke-miterlimit:10;}
	.st3{fill:none;stroke:#E8D5BA;stroke-linecap:round;stroke-linejoin:round;}
	.st4{fill:none;stroke:#282826;stroke-width:1.5;stroke-linecap:round;stroke-linejoin:round;}
	.st5{fill:none;stroke:#E8D5BA;stroke-width:0.75;stroke-linecap:round;stroke-linejoin:round;}
	.st6{fill:none;stroke:#282826;stroke-width:0.75;stroke-linecap:round;stroke-linejoin:round;}
	.st7{fill:none;stroke:#282826;stroke-width:3;stroke-linecap:round;stroke-linejoin:round;}
	.st8{fill:#E8D5BA;stroke:#282826;stroke-miterlimit:10;}
	.st9{fill:none;stroke:#282826;stroke-width:0.75;stroke-miterlimit:10;}
</style>
<g id="upper-body">
	<path class="st0" d="M180.8,68.8c1.4,0.3,3.6,0.8,5,1.1c0.1-0.9,0.8-1.7,1.8-1.7c0.7,0,1.3,0.4,1.6,1.1h0.2c1.2,0,2.1,0.9,2.1,2.1
		c1.7,0.5,3.4,1,5.1,1.6c0.2-0.7,0.8-1.2,1.5-1.3c1,0.1,1.7,0.9,1.6,1.9c0,0.1,0,0.3-0.1,0.4c1.7,0.6,3.4,1.3,5.1,2
		c0.7-1.1,1.8-1.7,3.1-1.6c1.8,0,3.3,1.2,3.3,2.6c0,0.3-0.1,0.6-0.1,0.9h0.1c1.3-0.1,2.4,0.8,2.6,2.1c0,0,0,0,0,0l0,0
		c0.9,0.5,1.8,0.9,2.7,1.4c0-1.9,0.6-3.4,1.4-3.4s1.3,1.5,1.4,3.4c0.5-0.2,1-0.1,1.4,0.1c0.7,0.7,0.9,1.8,0.5,2.7
		c1.6,1,3.1,2.1,4.7,3.2c0.3-1,0.9-1.7,1.5-1.7c1,0,1.8,1.8,1.9,4.1c0.5-0.4,1.3-0.5,1.9-0.2c0.4,0.5,0.6,1.1,0.3,1.7
		c2.1,0,3.9,1.7,3.9,3.8c0,0,0,0,0,0c0,0.1,0,0.1,0,0.2c1.8,1.7,3.6,3.5,5.3,5.3l0,0c1.7-0.3,3-0.1,3.4,0.8c0.2,0.5,0.1,1.1-0.2,1.6
		c2.2,0.2,3.9,1.3,4.2,2.9c0.1,0.6,0,1.2-0.3,1.8c3.1,0.8,5.3,2.2,5.1,3.1c-0.1,0.6-1.2,0.9-2.7,0.8c1.8,2.3,3.5,4.6,5.1,6.9
		c0.3-0.1,0.6-0.1,0.9-0.1c1.3,0,2.4,0.8,2.4,1.8c0,0.5-0.3,1-0.8,1.3c0.7,0.2,1.1,0.9,1.1,1.6c0,0.2-0.1,0.4-0.2,0.7
		c1.7,2.6,3.3,5.2,4.9,7.7c0.9-0.5,2-0.4,2.9,0.1c1.2,1,1.5,2.7,0.8,4.1c1.3,0.3,2.2,1.1,2.2,2c-0.1,0.8-0.6,1.4-1.4,1.7
		c0.9,1.6,1.7,3.1,2.5,4.7c0.2-0.1,0.4-0.2,0.6-0.2c1,0.1,1.8,1,1.8,2.1c0,0.6-0.2,1.2-0.6,1.6c0.9,1.9,1.8,3.7,2.6,5.5
		c0.8-0.4,1.6-0.4,2,0s0.2,1.2-0.4,2h0.2c1.3-0.1,2.4,0.7,2.6,2c0,0.3-0.1,0.6-0.2,0.9c0.8,0.2,1.3,0.9,1.4,1.7c-0.1,1-1,1.8-2,1.9
		c1.9,4.6,3.5,9.3,4.7,14.1l0.2,0.7c0.2,0,0.4,0,0.5-0.1c1.2-0.1,2.3,0.8,2.4,2c0,0.7-0.4,1.4-1.1,1.7c0.2,0.3,0.4,0.7,0.4,1.1
		c0,0.6-0.4,1.2-0.9,1.6c1,5.2,1.2,10.6,0.7,15.9c0.9,0.2,1.5,1.1,1.3,2c-0.1,0.8-0.8,1.4-1.6,1.4c0.3,0.3,0.5,0.8,0.5,1.2
		c0.1,0.8-0.6,1.5-1.4,1.6h-0.1c-1.3,4.3-8.9,16.5-13.3,22.9"/>
	<path class="st0" d="M60.7,219.4c-5.2-0.5-3.6,0.9-20-7.8c-1.7-1.1-3.7-1.9-5.8-3.1c-1.7-0.9-3.3-1.8-5-2.8
		c-0.2,0.1-0.5,0.1-0.7,0.1c-0.3,0-0.6,0-0.9-0.1c-0.6,1.2-1.4,2-1.7,2c-0.5,0-1.4-1.8-1.6-4.2c-0.9,1.3-1.9,2.1-2.4,1.8
		s-0.2-1.1,0.3-2.1c-1.3-0.2-2.3-1.3-2.4-2.6c0-0.5,0.2-1,0.6-1.4c-4.6-3.9-8.5-8.4-11.8-13.4c-0.2,0.3-0.6,0.5-0.9,0.5
		c-0.8,0-1.5-1-1.5-2.2c0-0.1,0-0.2,0-0.4c-0.4,0.2-0.9,0.1-1.2-0.1c-0.6-0.5-0.5-1.6,0.3-2.5c0.2-0.2,0.4-0.4,0.6-0.5
		c-1.1-2.4-2-4.9-2.7-7.4c0,0-0.1,0-0.2,0c-0.8-0.1-1.4-0.8-1.3-1.6c0-0.4,0.1-0.8,0.4-1.1c-1.2-0.1-2.1-1.1-2-2.3
		c0.1-1.1,0.9-1.9,2-2c-0.1-1.8,0-3.6,0.2-5.4c-0.8-0.4-1.3-1.2-1.3-2.1c-0.1-1.1,0.7-2.1,1.8-2.1c0,0,0,0,0,0h0.2
		c0.3-1.3,0.7-2.6,1.1-3.9c0.4-1.1,0.8-2.1,1.1-3.2c-2.2-2-3.5-3.9-3.1-4.4s1.5,0,3.1,0.9c-0.2-0.5-0.3-1.1-0.3-1.7
		c-0.1-1.6,0.9-3.1,2.3-3.7c-0.2-0.3-0.3-0.6-0.3-1c0-1,0.8-1.9,1.9-1.9c0.4,0,0.7,0.1,1,0.3c0.7-1.7,1.4-3.3,2.2-4.9
		c-0.8-0.5-1-1.5-0.6-2.2c0.2-0.3,0.4-0.5,0.7-0.6c-0.1-0.2-0.1-0.4-0.1-0.5c0-0.5,0.3-1,0.8-1.2c-0.5-1.2-0.4-2.4,0.3-2.8
		c0.8-0.3,1.7,0,2.2,0.7c1.3-2.4,2.6-4.8,3.9-7.1c-1.4,0.4-2.5,0.3-2.7-0.2s0.6-1.3,1.9-1.9c-0.3-0.4-0.5-0.8-0.5-1.3
		c0.1-1.3,1.3-2.3,2.6-2.2c0.3,0,0.7,0.1,1,0.2c0-0.1,0-0.1,0-0.2c0-0.9,0.7-1.7,1.6-1.7c0.1,0,0.3,0,0.4,0.1
		c1.1-1.7,2.2-3.3,3.3-4.9c-0.8-0.3-1.3-1.1-1.3-1.9c0-1.2,1.1-2.2,2.3-2.1c0.2,0,0.5,0.1,0.7,0.1c0.1-0.7,0.8-1.3,1.5-1.3
		c0.2,0,0.4,0,0.6,0.1c1.2-1.5,2.4-3,3.6-4.4c-0.1-0.3-0.1-0.5-0.1-0.8c0-0.9,0.5-1.8,1.3-2.3c-0.1-0.2-0.1-0.3-0.1-0.5
		c0-1.3,1.3-2.3,3-2.3l0,0c0.1-1.4,0.6-2.5,1.1-2.5s0.8,0.7,1,1.7c3.2-3.2,6.6-6.1,10.1-8.8C51.1,82,51,81.8,51,81.6
		c0-0.7,0.6-1.2,1.3-1.2c0,0,0,0,0,0h0.2c-0.4-0.3-0.6-0.8-0.6-1.3C52,78,53.2,77,54.7,77c0.9,0,1.8,0.4,2.4,1.1
		c3.2-2.1,6.6-4,10.1-5.6c-0.1-0.3-0.2-0.6-0.2-0.8c0-1.2,1-2.2,2.2-2.2c0.6,0,1.1,0.2,1.5,0.6c0.3-0.6,0.9-1,1.6-1
		c0.6,0,1.1,0.3,1.4,0.7c4-1.5,8.1-2.6,12.3-3.3c0.3-0.8,1-1.4,1.9-1.4c0.5,0,0.9,0.2,1.3,0.5c0.7-1.2,1.6-2.4,2.8-1.7
		c0.3,0.2,0.6,0.4,0.7,0.8c0.6-0.6,1.3-0.8,1.7-0.5c0.4,0.3,0.5,0.8,0.3,1.5l6.4-0.3c0.3-0.7,1-1.2,1.7-1.4
		c-0.3-1.3-0.3-2.4,0.2-2.6s1.4,0.7,2.2,2c0.6-0.6,1.3-0.9,2.1-0.9c1,0,1.9,0.5,2.4,1.3c0.8-0.8,1.5-1.1,1.9-0.9s0.2,1.2-0.3,2.1
		c1.8,0,6.3-0.1,8.1-0.2"/>
	<path class="st0" d="M133.2,186.2c-7.2,3.5-20.6,8.6-29.2,32.4"/>
	<path class="st1" d="M199.8,153.5c0.8-0.8,0.3,4.1-0.8,6.2c-2.6,5-16.5,3.6-18.8,2.4c-1.6-0.8-3.2-8-2.4-7.5
		S199.7,153.6,199.8,153.5z"/>
	<path class="st1" d="M204.4,192.1c0.7,0.9-9.4,6.5-11.2,7.9c-10.2,7.8-12.8,6.4-15.1,5.4c-3.9-1.7-13.1-5.7-12.1-6
		c0.4-0.1,13-1,22.4-2.8S204.2,191.9,204.4,192.1z"/>
	<path class="st2" d="M185.7,137.7c0.3,2.6-0.2,7.7,0.7,9.7c0.7,1.6,6.5,1.5,6.9-0.5c0.6-3,0.5-6.2-0.2-9.2
		C192.6,135.6,185.4,135.7,185.7,137.7z"/>
	<circle class="st1" cx="189.8" cy="145.2" r="1.3"/>
	<path class="st2" d="M186.2,147.4c-1.4,0.5-5.3,0.8-8,0.9c-2.2,0.1-2.4-1.4-2.4-5.7c0-4,4.8-5.1,9.6-5.3"/>
	<path class="st2" d="M192.8,147.2c1.4,0.5,4.9,0.6,7.6,0.3c1.1-0.1,1.6-5.2-0.3-9c-0.6-1.3-5.1-1-7-1"/>
	<path class="st1" d="M133.7,186.5c-9,2.5-28.9,32-29.6,32.4c-0.3,0.2-15.8-6.6-43.5,0.4c-6,1.5,32.4-58.7,45.5-53.6
		C123.4,172.6,135.2,186.1,133.7,186.5z"/>
	<path class="st1" d="M274.7,221.1c0,1.4-3.2,7-3.9,7c-1.8,0.2-9.2,1.4-9.8,1.6c-0.4,0.1-23.4-35.8-56.4-37
		c-1.5-0.1,13.2-15.6,19.8-15.9C264.2,175,274.7,219.6,274.7,221.1z"/>
	<path class="st3" d="M103.1,171.6c7.3,3.6,14.2,8,20.5,13.1"/>
	<path class="st3" d="M227.4,181.3c-5.1,4.5-7.3,7-9.7,9.1"/>
	<path class="st3" d="M239.4,186c-5.1,4.5-7.3,7-9.7,9.1"/>
	<path class="st3" d="M251.5,192.5c-5.1,4.5-8,7.8-10.3,9.9"/>
	<path class="st3" d="M260.1,203.6c-5.1,4.5-6.4,5.9-8.7,8"/>
	<path class="st3" d="M267.2,215.1c-5.1,4.5-5.4,5.6-7.7,7.7"/>
	<path class="st3" d="M94.3,182c9.1,5.6,12.1,8,19.6,14.9"/>
	<path class="st3" d="M85.1,191.7c7.2,4.9,14,10.2,20.5,16"/>
	<path class="st3" d="M74.8,206.3c5.9,4.2,13.2,8,20.7,14.9"/>
	<path class="st2" d="M166,199.5c13.2,1.8,23.8-2.4,39.8-7.7"/>
	<path class="st2" d="M178.7,206.2c3.3-0.3,7.6-0.8,11.1-3.7c4.8-4.1,20-12.9,31.1-21.8"/>
	<path class="st2" d="M133.2,186.2c0.5,0.1,29.6,10.6,44,19c8.1,4.7,8.4,15.4,7.7,22"/>
	<path class="st2" d="M86.3,126.8c-3.6,6.3-10.6,18.2-15.3,23.1"/>
	<path class="st0" d="M166.9,228.7c0.4-2.4,0.4-7.5-1.4-10.4"/>
	<path class="st2" d="M185.2,224.9c0.4-2.3,2.6-6.1,4.9-10.2"/>
	<path class="st0" d="M177.1,227.2c0.6-3.4,0.4-6.9-0.6-10.2"/>
	<path class="st0" d="M155,230.1c0.5-2.9,0.1-5.9-1.2-8.6"/>
	<path class="st2" d="M196.6,226.4c1.7-2.9,3.9-6.3,6.4-10"/>
	<path class="st2" d="M212.7,224.5c2.1-3.1,2.2-3.6,3.5-5.7"/>
	<path class="st2" d="M182.5,210.5c2.1-3,4.5-5.6,7.2-8"/>
	<path class="st2" d="M207.8,189.4c1.2-10,0.5-33.9-0.6-52.2"/>
	<path class="st2" d="M220.5,178.8c8-5.5,18.3-10.4,35.3-13.2"/>
	<path class="st2" d="M213.9,185.9c-1.2-2.5-5.2-9.6-5.4-11.1"/>
	<path class="st2" d="M133.2,186.2c-6.7-15.1-58.7-35.6-71.3-39.6"/>
	<path class="st4" d="M159.5,94.5c1,5.2,0,19.1,0.3,34.8"/>
	<path class="st2" d="M250.2,231.4c3.7-2.1,7.4-2.9,8.6-6.1"/>
</g>
<g id="lower-body">
	<path class="st2" d="M55.7,294.4c-0.5-1-6.2-3.4-6.5-3.4c-6.1-0.3-12.3-0.3-18.4,0c-3.5,0.1-5.4-0.4-5.2,2.8
		c0.1,1.7,3.5,1.3,2.8,2.4s-4.4,1.9-4.8,2.4c-0.9,1.4-1.1,3.2-0.6,4.8c0.4,0.9,4.2,1.2,3.9,2.2c-0.5,1.5-3.9,0.9-4.2,2.8
		c-0.3,1.7,0.2,4.5,0.3,6.5c0,1.7,3.6,0.8,3.6,2.6s-4.2,2.5-4.2,4.3c0,1.3,0.7,4.8,0.8,6.1s4,0.5,4,1.8s-4,1.8-3.9,3s0.9,5.4,1,6.6
		c0.2,1.6,4,1.1,4.3,2.5c0.4,1.8-3.5,1.6-3.1,3c0.9,3.1,1.9,4.1,2.9,4.2c6.4,0.5,12.7,0.5,19.1,0c16.3-1.5,10.3-5.3,23.6-6.4
		c1.1-0.1,6.1-3,11.2-3.6c3.7-0.3,7.5,0,11.1,0.9c-2.6-3.6-11.9-9.5-13-12.9c-1.1-3.3-1-3.8-3.2-5.7c-3.1-2.6-5.9-5.4-8.6-8.4
		C63.4,307.4,59.1,301.2,55.7,294.4z"/>
	<path class="st1" d="M234.4,233c6.9-0.9,13.2-1.1,18.6-2.4c1.2-0.3,4.1-4.1,5.9-4.3c4.9-0.7,8.8,2.3,12.8,1.8
		c24.7-3.1,31.1-2.5,40.2,6.1c8.4,8,13.8,25,12.2,38.5c-0.7,6.3-1.3,9-4.1,13.3c-1.8,2.7-0.7-0.2-2.4-0.7c-1.5-0.5-3.1-0.7-4.7-0.6
		c-3.6,0.5-0.7,2.1-2.4,1.2c-1-0.5-1.2-1.1-2.2-1.8c-1.2-0.7-2.4,0.1-3.7-0.7c-0.9-0.6-2.1,2-3.1,1.4s-1.2-1.8-2.1-2.3
		c-0.7-0.4-2.4,0.2-3.1-0.2c-0.5-0.3-2.2,1.5-2.8,1.2s-1.7-1.4-2.4-1.8s-2.3-0.1-3.1-0.5c-1.6-0.8-0.6,2.6-2.8,1.2
		c-1.3-0.8-1.2-0.9-2.6-1.8c-0.9-0.6-2.1,0.4-3.1-0.2c-1.1-0.7-1,1.5-2.1,0.8c-2.3-1.4-1.4-0.6-4.6-1c-0.8-0.1-1.5,0.9-2.3,0.8
		s-0.9-0.5-1.6-0.6c-1-0.2-2-0.1-3,0.1c-0.7,0.2-0.8,1-1.3,1.5c-11.3,13.3-45.2,4.9-65.6-1.6c-18.7-6-39.4-20.4-37.4-30.3
		c0.7-3.4,6.3-2.4,33.3-5.3c9.1-1,23.2-2.9,38.1-4.9C234.3,240.1,233,233.2,234.4,233z"/>
	<path class="st1" d="M92.3,331.6c7.4,4.1,21,9.1,23.9,9.3c4.6,0.3-25,3.9-30.8-1.6c-5.1-4.8-8.4-10.2-8.4-18.5
		C77.1,319.9,79.8,324.8,92.3,331.6z"/>
	<polyline class="st2" points="213.4,226.3 214.2,224.3 222.6,223.1 229.2,223.1 230.6,228.5 	"/>
	<polyline class="st2" points="197.7,229.8 199,226.6 206.3,224.4 212.9,224.4 214.4,230.2 	"/>
	<line class="st2" x1="147.9" y1="233.1" x2="152.1" y2="231.7"/>
	<polyline class="st2" points="151.8,233.1 152.9,230.7 158.9,229.2 164.2,229 164.6,231.6 	"/>
	<polyline class="st2" points="181.1,231 182.3,227.7 189.9,225.8 196.5,225.9 198.1,231.7 	"/>
	<polyline class="st2" points="163.4,233.9 165.9,229 174,227.5 180.6,227.4 181.4,233.4 	"/>
	<path class="st0" d="M234,230.9l-0.5,7.8c-0.1,1-0.9,1.9-1.9,2l-59.8,6.7c-6.4-4.2-9.2-5.7-25.7-14.4l25.2,1.4
		c0.1,0,60.3-5.8,60.3-5.8c1.2-0.1,2.2,0.8,2.4,1.9C234,230.7,234,230.8,234,230.9z"/>
	<path class="st2" d="M227.3,284.2c12.4,4,12.6,2.8,22.1,4.1c1.5,0.2,7.1-1.9,9.8-3.4c6.7-3.6,11.8-3.1,52.1,2.2
		c27.1,3.6,27.2,3.1,33.1,6.5c13.7,7.8,15.7,38.5-1.9,49.6c-3.3,2.1-18.5,4.9-39.1-0.5c-10.8-2.9-16.2-4.5-27.8-3.9
		c-25.9,1.2-55.6,9-53.8,7.3"/>
	<path class="st1" d="M268.5,285.4c-3.4,3.4-20.9,4.1-19.6,3.4c3.4-1.7,14.6-6.5,17.5-6.5C272.8,282.1,269,284.9,268.5,285.4z"/>
	<path class="st1" d="M309.7,286.9c-7.9,2.6-9.7,12.6-23.2,15.4c-6,1.2-41.5-3.7-42.1-1.9c-0.4,1.2-1.4,6.7,0.2,7
		c35.2,7.7,49,4.9,53.6,4s9-16.1,18.5-23.4C317.6,287.4,310.9,286.5,309.7,286.9z M255.8,307.9c-1.5,0-2.6-1.2-2.6-2.6
		c0-1.5,1.2-2.6,2.6-2.6c1.5,0,2.6,1.2,2.6,2.6C258.4,306.7,257.2,307.8,255.8,307.9L255.8,307.9z M270.3,308.9
		c-1.4,0-2.6-1.2-2.6-2.6s1.2-2.6,2.6-2.6s2.6,1.2,2.6,2.6l0,0C272.9,307.7,271.8,308.9,270.3,308.9
		C270.4,308.9,270.3,308.9,270.3,308.9L270.3,308.9z M280.7,309.6c-1.4,0-2.6-1.2-2.6-2.6s1.2-2.6,2.6-2.6s2.6,1.2,2.6,2.6l0,0
		C283.3,308.4,282.1,309.6,280.7,309.6C280.7,309.6,280.7,309.6,280.7,309.6L280.7,309.6z M292.2,309.9c-1.5,0-2.7-1.2-2.7-2.6
		c0-1.5,1.2-2.7,2.6-2.7c1.5,0,2.7,1.2,2.7,2.6c0,0,0,0,0,0C294.9,308.7,293.7,309.9,292.2,309.9
		C292.2,309.9,292.2,309.9,292.2,309.9L292.2,309.9z"/>
	<path class="st1" d="M52.9,292.4c-1.8-4.3-1.5,0.2,33.5,8.7c1.6,0.4-1.2,5.8-1.6,7.1c-0.6,1.9-5.3,0.5-11.4,1
		c-7.9,0.6-11.4,3.3-13.7-2.1C58.5,304.3,55.1,297.7,52.9,292.4z"/>
	<path class="st1" d="M72.3,342.1c-1-7.7,2.3-14.7,13.7-14.7c1.7,0,0.2-7.4-1-7.2c-15.8,3-20.1,1.6-20.2,6.5
		c-0.2,9.8,0.8,12.1,1.2,16.4C66.1,344.6,72.5,343.3,72.3,342.1z"/>
	<path class="st1" d="M295.5,329.6c-5-1.7-17.8-7.7-53,0c-1.6,0.4-0.6,5.8-0.2,7c0.6,1.9,30.6-4.1,36.6-2.8
		c13.5,2.8,16.6,1.4,18.1,6.9c0.3,1.2,6.4,2.4,6.1,1.2C302.3,338.1,299.9,331,295.5,329.6z M256.3,333.9c-1.4,0-2.6-1.1-2.6-2.6
		s1.1-2.6,2.6-2.6s2.6,1.1,2.6,2.6l0,0C258.9,332.7,257.8,333.9,256.3,333.9L256.3,333.9z M267.8,332.6c-1.4,0-2.6-1.2-2.6-2.6
		c0-1.4,1.2-2.6,2.6-2.6c1.4,0,2.6,1.2,2.6,2.6c0,0,0,0,0,0C270.4,331.4,269.2,332.6,267.8,332.6L267.8,332.6z M280.3,331.8
		c-0.3,0.2-0.6,0.3-1,0.3c-0.8-1.4-1.5-2.8-2.1-4.2c0.3-0.3,0.7-0.6,1.1-0.7c0.2-0.1,0.5-0.1,0.7-0.1c1.4,0,2.5,1.1,2.5,2.5
		c0,0,0,0,0,0C281.5,330.5,281.1,331.3,280.3,331.8L280.3,331.8z M290.8,334.2c-1.4,0-2.5-1.1-2.5-2.5c0-1.4,1.1-2.5,2.5-2.5
		s2.5,1.1,2.5,2.5c0,0,0,0,0,0C293.3,333.1,292.2,334.2,290.8,334.2L290.8,334.2z"/>
	<path class="st2" d="M240.1,307c10.5,0.8,38.9,8.3,57.2,4.3c6.1-1.3,5-13.9,18.6-23.3"/>
	<path class="st2" d="M303.5,342.6c-2-10-5.9-25.4-75.8-10.6"/>
	<path class="st1" d="M214.4,348.8c-0.1-6.6,4.5-39.5,4.5-65.7c0-0.9,15.9-2.7,21.9,3.6c14.2,15,6.5,48.9,1,55.7
		C235.2,350.5,214.4,349.8,214.4,348.8z"/>
	<path class="st2" d="M240.6,287.4c2.4-0.3,21.7,4.2,23.8,3.2"/>
	<path class="st2" d="M39.2,296.7C65,295.2,64,344.5,40.9,346"/>
	<path class="st2" d="M33.3,291c-3.4,14.7-1.3,51.3,3.3,58.3"/>
	<path class="st1" d="M37,291.1c-6.6-32.3,3.5-60.6,17-68.6c27-16,84.8-0.4,127.4,32c3,2.3,12.1,10.2,17.4,18.6
		c2.6,4.2,7.8,1,12,6.8c1.9,2.6,5.6,2,8.6,3.6c6.9,7.8,10.3,18,9.4,28.4c-1.1,14.8-5.5,34.4-14.2,36.8l-0.1,0.2
		c-28.2,0.6-82,3.1-118.8-15.3c-16.5-8.2-30.1-20-40.1-39.6c0,0-5.2-3.4-17.1-3L37,291.1z"/>
	<path class="st1" d="M355.5,315.6c0,19-10,27.5-14.5,28.8c-21.5,6.2-31-1.5-31.7-22.2c-0.5-13.8,11.6-32.7,20-32.7
		C349.1,289.5,355.5,305.2,355.5,315.6z"/>
	<path class="st1" d="M59.7,321.2c0,19-10.4,23.8-13,24.8c-12,4.7-14.5-3.3-14.3-24.3c0.1-12-3-26.9,4.2-27.3
		C52.7,293.6,59.7,310.9,59.7,321.2z"/>
	<path class="st5" d="M325,293.8c1.1-1.1,2.2-2.1,3.5-2.9"/>
	<path class="st6" d="M302.1,289.6c1.1-1.1,2.2-2.1,3.5-2.9"/>
	<path class="st6" d="M297.6,293.7c1.1-1,2.4-2.1,3.1-2.7"/>
	<path class="st6" d="M292.7,297.6c1.2-0.8,2.3-1.6,3.3-2.6"/>
	<path class="st6" d="M243.3,339c1.4,0,2.8-0.1,4.2-0.4"/>
	<path class="st6" d="M250.4,338.4c1.4,0,2.8-0.1,4.2-0.4"/>
	<path class="st6" d="M257.7,337.6c1.4,0,2.8-0.1,4.2-0.4"/>
	<path class="st6" d="M264.6,336.8c1.4,0,2.8-0.1,4.2-0.4"/>
	<path class="st6" d="M287.3,337.2c1.7,0.1,3.4,0.1,4.1,2.2"/>
	<path class="st6" d="M271.1,336.1c1.4,0,2.8-0.1,4.2-0.4"/>
	<path class="st6" d="M280.9,335.9c1.4,0.1,2.9,0.3,4.3,0.5"/>
	<path class="st6" d="M285.9,300.6c1.8-0.4,3.4-1,5-1.9"/>
	<path class="st6" d="M277.9,300.7c1.8,0.3,3.7,0.4,5.5,0.4"/>
	<path class="st6" d="M269.7,300.2c1.8,0.3,3.7,0.5,5.5,0.4"/>
	<path class="st6" d="M252.1,298.8c1.8,0.3,3.7,0.4,5.5,0.4"/>
	<path class="st6" d="M243.8,298.2c1.8,0.3,3.7,0.4,5.5,0.4"/>
	<path class="st6" d="M263.8,299.9c1.2,0.2,2.5,0.3,3.7,0.3"/>
	<path class="st5" d="M320,300c0.8-1.5,1.8-2.8,2.9-4"/>
	<path class="st5" d="M315.9,307.5c0.7-1.7,1.6-3.3,2.5-4.9"/>
	<path class="st5" d="M313.6,316.3c0.3-1.9,0.7-3.9,1.2-5.7"/>
	<path class="st5" d="M313.5,325.4c-0.3-1.9-0.3-3.9-0.2-5.8"/>
	<path class="st5" d="M315.2,334.2c-0.6-1.9-1-3.8-1.3-5.7"/>
	<path class="st5" d="M319.6,341.9c-1.3-1.3-2.3-2.7-3.1-4.3"/>
	<path class="st5" d="M323.8,344.8c-0.8-0.3-1.5-0.7-2.2-1.2"/>
	<path class="st7" d="M270.3,306.8c-3,8.1-4.5,15.5-1.9,22.6"/>
	<path class="st7" d="M292.2,307.3c-3,8.1-4,17.3-1.4,24.4"/>
	<path class="st7" d="M280.7,307c-3,8.1-4.5,15.5-1.9,22.6"/>
	<path class="st7" d="M256,305.5c-3,8.1-2.3,18.7,0.3,25.9"/>
	<path class="st8" d="M206.9,236.6c30.6,5.2,42.4,29.7,54,57.3c10.6,25.2,21.1,53,45.6,71.2c1,0.7-8.3,0.8-9,0.1
		c-17.5-16.5-29.2-42.7-39.8-66.9c-12.2-27.8-25.1-52.7-50.8-56.3c-1.8-0.2-5.5-0.8-5-3.5S204.7,236.2,206.9,236.6z"/>
	<path class="st9" d="M341.1,344c4.3-0.8,9.1-1,10.3-2.9c0.4-0.7,1.5-2.6,1.5-2.6c-0.3-1.2-0.7-1.6-0.7-2.1s1.5,0,2.8-1.9
		c1.6-2.2,3.2-5,2.1-6.5c-0.9-1.1-1.3-1.6-1.4-2.2s2.3-0.6,3-2.7c1.1-3.2,1.4-5.4-0.3-6.5c-1.1-0.7-1.5-1.3-1.6-2s0-1,1.9-2.8
		c1.3-1.3,1.8-5.3-0.1-7.3s-2.6-0.9-3.3-1.2c-0.5-0.2-1.8-0.2-0.7-1.8c1.3-2,1.2-2.9-0.8-5.6c-1.5-2-4.7-0.3-4.7-0.9
		c0-1.1-0.4-2.1-0.9-3c-0.9-1-2-1.7-3.3-2.1c-1.7-0.4-3.5,1.1-3.5,0.5c0.1-1.5,0.1-1.7-3.4-2.4c-1.1-0.2-2.5-0.6-4.3-0.8
		c-1.1-0.1-2,1.5-3,1.4c-1.7-0.1,0.4-1.7-2.7-2.1c-1.6-0.2-2.5-0.4-4.4-0.7c-2.5-0.3-1.9,1.8-4.7,1.5c-0.5,0,1.2-1.6-0.3-2
		c-1-0.3-4.1-0.5-5.3-0.8c-1.4-0.3-2.2,1.9-2.9,1.7s-0.8-1.7-1.6-1.9s-3.5-0.5-4.1-0.6c-0.8-0.2-2.4,1.6-3.1,1.4s-0.7-1.9-1-1.9
		c-1.1-0.1-3.1-0.5-4.2-0.6c-0.9-0.1-1.9,1.3-2.8,1.2s-1.3-1.7-2.2-1.8c-1.2-0.1-2.2-0.4-3.3-0.5s-1.7,1.3-2.8,1.2
		c-1.6-0.1-1.1-1.7-2.6-1.8c-0.8,0-2.3-0.2-3.1-0.2c-0.9,0-1.2,0.8-2.1,0.8s-1.1-0.9-2.1-0.8c-0.7,0-1.8-0.2-2.5-0.2
		s-1.5,0.8-2.3,0.8s-1.5-0.5-2.1-0.5s-1.6-0.1-2.1,0c-1.2,0.1-1.5,2-2.1,2.4"/>
	<circle class="st1" cx="176.1" cy="242.1" r="1.1"/>
	<circle class="st1" cx="180.1" cy="241.9" r="1.1"/>
</g>
<g id="decorations">
	<circle class="st1" cx="170" cy="120.1" r="4.5"/>
	<circle class="st1" cx="169.4" cy="102.8" r="4.5"/>
	<path class="st0" d="M200.3,147.5c0,4-0.3,8-1,12c-0.9,4.4-13,4.4-18.3,3.1c-2.6-0.6-4.1-8.7-4.3-14.4"/>
	<path class="st2" d="M31.4,113.8c-2,0.4-6.3,1.1-7,2.4c-0.8,1.5,14.5,3.3,16.4,2.7c0.8-0.3,4-0.7,4.4-2.8
		C45.4,114.8,34.3,113.2,31.4,113.8z"/>
	<ellipse class="st1" cx="33" cy="116.7" rx="2.3" ry="0.8"/>
	<path class="st1" d="M42.3,125.4c0.5,0.7-4.7,6.6-6,7.7c-2.9,2.4-17.8-0.2-18-2.3s2.2-8.7,4.2-8.6
		C37.2,122.8,41.9,124.8,42.3,125.4z"/>
	<path class="st0" d="M45.1,116.3c2.4,3.7-5.8,13.1-7.9,16c-2.6,3.6-10.2,1.6-16.4,0.3c-4.8-1-2.4-6.9,5.5-15"/>
	<path class="st1" d="M159.5,121.4c-0.9-6.3-1.9-11.8-2.6-16.1c-0.8-4.8-1.6-8.9-1.4-9.9c0.5-0.1,1-0.2,1.4-0.3
		c0.8-0.2,1.7-0.4,2.5-0.5c0.9,0,1,0.3,1,0.7C160.5,97.3,159.9,113.1,159.5,121.4z"/>
	<path class="st1" d="M159.5,95.1L159.5,95.1c0.2,0,0.3,0,0.5,0.1l0,0c0,0.1,0,0.1,0,0.2c0,1.5-0.4,12.3-0.7,20.8
		c-0.6-4.2-1.3-7.9-1.8-10.9c-0.6-3.1-1.1-6.2-1.4-9.3c0.3-0.1,0.7-0.2,1.1-0.3C157.9,95.3,158.7,95.2,159.5,95.1 M159.5,94.1
		c-1.4,0-3.4,0.8-4.2,0.8c-1.3,0,2.1,13.5,4.4,31.6l0,0c0.2,0,1.3-28.8,1.3-31.2C160.9,94.4,160.3,94.1,159.5,94.1L159.5,94.1z"/>
	<path class="st9" d="M97.6,88.6c-0.2-1.7,0.8-3.4,2.4-4.1c1.4-0.7,2.6,0.4,3.2,1.6"/>
	<path class="st9" d="M102.9,88.5c-0.4-2,0.5-3.7,2.3-4c1.6-0.3,2.5,0.6,3.1,2.2"/>
	<path class="st9" d="M111.6,155.2c-1.2-1.3-1.5-3.1-0.7-4.7c0.7-1.4,2.3-1.3,3.5-0.7"/>
	<path class="st9" d="M115.6,151.9c-1.6-1.4-1.9-3.2-0.6-4.6c1.1-1.2,2.3-1.1,3.8-0.2"/>
	<path class="st9" d="M106.2,117.1c-0.4-2,0.8-3.6,2.6-3.3c1.5,0.3,1.6,1.9,2.3,3.5"/>
	<path class="st9" d="M133.3,100.9c-0.5-2.5-0.7-3.2-2.3-3.9s-2.5,0.7-3.4,2.2"/>
	<path class="st9" d="M114.2,121.2c-0.5-2.5-0.4-3.2-2-3.9s-2.3,0.9-3.3,2.4"/>
	<path class="st9" d="M55.4,169.2c-1.4-1.5-1.3-3.4,0.4-4.2c1.4-0.6,2.4,0.7,3.8,1.7"/>
	<path class="st9" d="M64.3,168.2c-1.8-1.8-2.1-2.4-3.8-2.1s-1.4,2-1.4,3.8"/>
	<path class="st9" d="M154.1,162.6c1.3-1.6,3.2-1.7,4.2-0.1c0.8,1.3-0.4,2.5-1.2,4"/>
	<path class="st9" d="M156.2,171.2c1.5-2,2.1-2.4,1.6-4.1s-2.2-1.2-3.9-0.9"/>
	<path class="st9" d="M127.7,98.9c-0.9-1.7-0.9-2.8-2.7-2.8c-1.2,0-2.3,1.2-2.1,3.3"/>
	<path class="st9" d="M210.1,95.3c0.1-2.1,1.8-3,3.5-2.3c1.3,0.6,1.4,2.3,0.9,3.7"/>
	<path class="st9" d="M212.3,98.3c1.3-1.6,2.6-2.2,4-1c1.3,1,0.9,2.2,0.1,3.8"/>
	<path class="st9" d="M65.5,92.9c-0.3-1.6-0.6-3,1.2-3.7c1-0.4,1.7,0.4,2.5,1.4"/>
	<path class="st9" d="M72.7,94.9c-0.4-2,0.3-3.1,2.2-3.4c1.6-0.3,2.8,0.6,3.4,2.3"/>
	<path class="st9" d="M68.7,93.1c-0.4-2.1,0.2-3.2,2.1-3.5c1.5-0.1,2.8,1,3,2.4"/>
	<path class="st9" d="M229.1,132.3c-0.6-1.5-1.2-2.8,0.4-3.8c0.9-0.6,1.7,0.1,2.7,0.9"/>
	<path class="st9" d="M236.6,132.9c-0.8-1.9-0.3-3.1,1.4-3.8c1.5-0.6,2.9,0,3.8,1.5"/>
	<path class="st9" d="M232.3,131.9c-0.8-1.9-0.4-3.2,1.4-3.9c1.4-0.4,2.9,0.4,3.4,1.8"/>
	<path class="st9" d="M130.4,102c-0.9-2.6-1.8-3.2-3.7-2.8c-1.7,0.4-1.3,2.2-1.4,2.5"/>
	<path class="st9" d="M198.8,110.9c0.8-2.4,1-3.1-0.1-4.5s-2.5-0.6-4.1,0.2"/>
	<path class="st9" d="M195,106.5c0-1.9,0.6-2.9-1-3.8c-1.1-0.6-2.6-0.1-3.4,1.9"/>
	<path class="st9" d="M195.8,110.5c0.5-2.7,0-3.7-1.9-4.3c-1.6-0.5-2.2,1.3-2.5,1.5"/>
	<path class="st3" d="M64.6,218.9c10-3.4,17.5-5.4,34.2-0.5"/>
	<path class="st3" d="M160.6,289c5.5,2.4,33.3,25.1,38.9,15.9c2.8-4.7,13.6-18.5,10.2-1.6c-1.4,6.7-2.4,20.9,4.2,13.8
		c9.4-10.2,9.6,0.5,15.6,0.3"/>
	<path class="st3" d="M222.2,286.2c24.7,15.3,11.8,58.4-3.3,60.3"/>
	<path class="st3" d="M219.6,282.9c8.9-1.8,14-0.2,18.7,3.9"/>
	<path class="st3" d="M173.1,249.6c8.6,7.8,29.9,27.8,34.6,31.9"/>
	<path class="st3" d="M260.4,227.7c1.8,2.1,4.8,1.9,7.4,1.2"/>
	<path class="st9" d="M56.6,105.7c-0.1-2.3-0.2-4,2-4.4c1.7-0.3,2.7,0,4.3,3.3"/>
	<path class="st9" d="M84.5,109.2c4.3-6.6,4.9-1,6.2,0.7"/>
	<path class="st9" d="M246.3,151.6c7.6-2.4,4.5,2.3,4.3,4.4"/>
	<path class="st9" d="M241.1,151.1c6.8-4.1,4.9,1.2,5.2,3.3"/>
	<path class="st9" d="M88.2,112.7c4.3-6.6,4.9-1,6.2,0.7"/>
	<path class="st9" d="M28.2,162.8c-7.2-3.2-1.8-4.7-0.3-6.2"/>
	<path class="st9" d="M31.1,158.6c-7.2-3.2-1.8-4.7-0.3-6.2"/>
	<path class="st9" d="M61,107.3c4.3-6.6,4.9-1,6.2,0.7"/>
	<path class="st9" d="M136.4,126.2c-0.1-2.3,0-3.9,2.1-4.4c0.9-0.2,2,0.8,3.5,3.2"/>
	<path class="st9" d="M139.6,127.3c3.6-4.5,6.1-1,6.2,0.7"/>
</g>
<g id="head">
	<path class="st2" d="M182.9,48.3c-0.3,3.5-0.9,7.1-1.2,10.8c-1.2,13.7-1.7,28.2-19.3,30.1c-15,1.7-46.2-4.2-42.1-28.1"/>
	<path class="st1" d="M183.7,40.4c-1.4-0.1-5.2-0.8-7.3-3.5c-3.3-2.9-5.1-2.2-16.3-3.1c-21-1.5-29.2,4.1-36.6,8
		c-2,0.8-4.2,1.4-6.3,1.7c1,6.3,2.5,3.2,4.9,3.8c4,0.9,3.2,7.2,3.1,10.6c-0.8,11.2-2.8,22.2,2.7,27.9c4.7,4.8,22.6,11.1,35.9,9
		c7.9-1.2,13.2-3.2,15.7-8.9c1.8-4.2,1.9-10.8,0-11.9c-5-2.9-21.1-4.3-35.2-0.2c-10.9,3.2-13.6-7.3-15.7-14c-0.7-4.2-1.6-8.2,4-7.7
		c3.2,0.3,1.3-4.4,4.4-2.6c4.5,3.9,4.3-2,7.4-1c5.4,1.9,4.1-3.9,6-1.7c1.2,1.2,2.8,1.9,4.5,1.9c3.8,0.4,2.4-0.6,7.1,2
		c4.7,3.3,4.9-0.2,8.4,0.4c2.6,0.4,4,2.7,5.8,2.6c0.9,0,1.6-0.7,3.3-0.3c2.7,2.7,5.2,2.1,6-0.1c0.7-1.8-0.7-3.1,0.1-3.2
		s3.2-0.7,1.9-2.4C189.5,46.7,192,40.9,183.7,40.4z M165,73.6c4.4,0,9.2,0.8,9.2,5.6c0,4.1-4.9,5-9.3,5s-13.4-0.4-10.1-6.1
		C157.8,73.1,160.6,73.6,165,73.6z M164,42.6L164,42.6L164,42.6C164,42.6,164,42.6,164,42.6z"/>
	<path class="st1" d="M164.7,43.7L164.7,43.7L164.7,43.7L164.7,43.7z"/>
	<path class="st1" d="M164.7,43.6C164.7,43.6,164.7,43.7,164.7,43.6L164.7,43.6L164.7,43.6z"/>
	<path class="st1" d="M164.7,43.6L164.7,43.6L164.7,43.6C164.7,43.6,164.7,43.6,164.7,43.6L164.7,43.6z"/>
	<g id="Hat">
		<path class="st2" d="M118.2,31.1c-0.7-0.7-1.2-6.2,4-12c2.9-3.3,0.4-6.1,5.8-9c3.9-2.2,12.4-6.6,17.3-7.9
			c10.4-2.9,18.6,5.6,23.7,7.4c11.7,4.2,11.9,17.1,12.1,17.4"/>
		<path class="st1" d="M150.1,19v1c10.6,0,22,2.6,30.4,7l1.6,0.9c0.6,0.4,1.7,3.4,2.1,8c0.4,4.4-0.1,6.7-0.4,7.2
			c-0.9-0.6-1.7-1.3-2.5-2l-0.4-0.4c-3.8-3.3-8.8-6.9-20-6.9h-4.1c-18.4,0-20,0.8-26,3.9c-4.3,2.2-8.8,4.2-13.3,5.8
			c-0.6-0.7-0.9-1.5-1-2.3c-0.6-3.1-0.2-7.5,1.8-9.6l0.9-0.9c9.3-8.8,22-10.7,31.2-10.7V19 M117.3,43.6L117.3,43.6 M150.1,19
			c-11.8,0-23.6,3.1-31.8,11.1c-0.3,0.3-0.6,0.6-0.9,0.9c-3.6,3.7-2.5,13.2-0.2,13.6h0.2c0.1,0,0.2,0,0.3-0.1
			c21.8-8.1,12.3-9.7,39-9.7h4.1c11.2,0,16,3.8,19.4,6.7c1,0.9,2,1.7,3.1,2.5c0.2,0.1,0.4,0.2,0.6,0.2c2.8,0,1.4-15.7-1.2-17.2
			c-0.5-0.3-1.1-0.6-1.6-0.9C172.9,22,161.5,19,150.1,19z"/>
		<path class="st2" d="M178.6,39.5c0.8-5-0.6-11-1.8-14.9"/>
		<path class="st2" d="M168,34.6c0.8-5-1-9.5-2.2-13.5"/>
		<path class="st2" d="M155.9,34.7c0.8-5-1-10.8-2.1-14.8"/>
		<path class="st2" d="M133.7,36.4c-0.4-5.1,0.2-10.9,0.1-15"/>
		<path class="st2" d="M124,41.1c-0.4-5,0.2-10.8-0.9-14.8"/>
		<path class="st2" d="M145.4,34.9c0.8-5-1-11-2.1-14.9"/>
		<line class="st2" x1="157.7" y1="6.2" x2="160.9" y2="3"/>
		<line class="st2" x1="152.2" y1="6.6" x2="148.8" y2="3.8"/>
		<line class="st2" x1="135.4" y1="18.7" x2="136.5" y2="14.4"/>
		<line class="st2" x1="143" y1="5.5" x2="143" y2="1.1"/>
		<line class="st2" x1="157.1" y1="11.6" x2="153.5" y2="14.2"/>
		<line class="st2" x1="137.9" y1="8.4" x2="134.5" y2="5.5"/>
		<line class="st2" x1="130.4" y1="16" x2="127" y2="13.1"/>
		<line class="st2" x1="142" y1="13.3" x2="144.5" y2="9.6"/>
		<line class="st2" x1="154.9" y1="4.4" x2="154.7" y2="0"/>
		<line class="st2" x1="163.8" y1="9.9" x2="166.3" y2="6.2"/>
		<line class="st2" x1="167.3" y1="16.2" x2="164.9" y2="12.5"/>
		<line class="st2" x1="172.9" y1="15.2" x2="175.8" y2="11.8"/>
		<line class="st2" x1="176.1" y1="20.7" x2="180.5" y2="20"/>
		<line class="st2" x1="182.8" y1="34.7" x2="185.9" y2="31.6"/>
		<line class="st2" x1="173.1" y1="28.8" x2="170.2" y2="25.5"/>
		<line class="st2" x1="176.9" y1="29.2" x2="179.8" y2="32.6"/>
		<line class="st2" x1="160.3" y1="29.3" x2="163.4" y2="26.2"/>
		<line class="st2" x1="113.3" y1="38.1" x2="117.7" y2="39"/>
		<line class="st2" x1="138.9" y1="29.4" x2="142.1" y2="31.2"/>
		<line class="st2" x1="150.2" y1="21.9" x2="146.4" y2="24.1"/>
		<line class="st2" x1="130.8" y1="26.8" x2="128.4" y2="30.5"/>
		<line class="st2" x1="122.8" y1="23.7" x2="118.6" y2="22.2"/>
	</g>
	<path class="st1" d="M165.4,35.7c-0.5,0-1.1-0.1-1.6-0.2c-0.5-0.1-1-0.2-1.5-0.2c-0.4,0-0.8,0.1-1.2,0.2c-0.3,0.1-0.7,0.1-1,0.1
		l0,0c-0.3,0-0.3,0-0.3-0.2c0-1,1.6-3.1,2.5-3.5c0.5-0.2,1-0.4,1.5-0.4c1.7,0,2,2.2,2.1,4v0.2C165.8,35.6,165.8,35.7,165.4,35.7z"/>
	<path class="st1" d="M163.8,31.9L163.8,31.9c1,0,1.4,1,1.6,3.3c-0.5,0-0.9-0.1-1.4-0.2c-0.5-0.1-1.1-0.2-1.6-0.2h-0.1
		c-0.4,0-0.8,0.1-1.2,0.2c-0.2,0-0.5,0.1-0.7,0.1c0.4-1.1,1.2-2.1,2.1-2.8C162.9,32,163.3,31.9,163.8,31.9 M163.8,30.9
		c-0.6,0-1.2,0.2-1.7,0.4c-1.1,0.5-2.8,2.8-2.8,4c0,0.5,0.4,0.7,0.8,0.7s1.4-0.2,2.1-0.3h0.1c0.8,0,2.2,0.4,3.1,0.4
		c0.5,0,0.9-0.1,0.9-0.6C166.3,34.6,166.3,30.9,163.8,30.9L163.8,30.9z"/>
	<path class="st1" d="M159.9,37.7c-0.8,0-1.6-0.1-2.3-0.3c-0.6-0.1-1.1-0.2-1.7-0.2h-0.1c-1.1,0-3-1.1-3-1.9s2.7-2.8,3.9-3
		c0.2,0,0.3,0,0.5,0c2.6,0,3.4,4.5,3.4,5.4l0,0C160.3,37.7,160.1,37.7,159.9,37.7z"/>
	<path class="st1" d="M157,32.7c1.9,0,2.7,3,2.9,4.5h-0.1c-0.8,0-1.5-0.1-2.2-0.3c-0.6-0.1-1.2-0.2-1.8-0.2h-0.1
		c-1-0.1-1.9-0.6-2.5-1.3c0.1-0.6,2.5-2.4,3.5-2.6C156.7,32.7,156.9,32.7,157,32.7 M157,31.7c-0.2,0-0.4,0-0.6,0.1
		c-1.2,0.2-4.4,2.3-4.3,3.6s2.3,2.3,3.5,2.3h0.1c0.8,0,2.8,0.5,4,0.5c0.7,0,1.1-0.1,1.1-0.5C160.9,36.5,160,31.7,157,31.7L157,31.7z
		"/>
	<path class="st1" d="M172.1,37.6c-0.8,0-1.6-0.1-2.3-0.3c-0.6-0.1-1.1-0.2-1.7-0.2h-0.1c-1.1,0-3-1.1-3-1.9
		c0.2-0.9,5.8-3.8,7.1-4.1c0.1,0,0.3,0,0.4,0c0.3,0,0.5,0.1,0.7,0.3c0.7,0.8,0.2,3.2-0.1,4.6c-0.1,0.5-0.2,1-0.2,1.6l0,0
		C172.5,37.6,172.3,37.6,172.1,37.6z"/>
	<path class="st1" d="M172.4,30.7v1c0.2,0,0.2,0.1,0.3,0.1c0.5,0.6,0,3.1-0.2,4.2c-0.1,0.5-0.2,0.9-0.2,1.2h-0.1
		c-0.8,0-1.5-0.1-2.2-0.3c-0.6-0.1-1.2-0.2-1.8-0.2h-0.1c-1-0.1-1.9-0.6-2.5-1.3c0.8-1,5.6-3.5,6.7-3.7h0.3L172.4,30.7 M172.4,30.7
		c-0.2,0-0.3,0-0.5,0c-1.2,0.2-7.6,3.4-7.5,4.6s2.3,2.3,3.6,2.3h0.1c0.8,0,2.8,0.5,4.1,0.5c0.7,0,1.1-0.1,1.1-0.5
		C173.2,36.5,175.2,30.7,172.4,30.7L172.4,30.7z"/>
	<path class="st1" d="M174.8,40.4c-1.5-0.2-2.9-1-4-2.1c-0.4-0.6,1-2.7,2-3.4c0.6-0.3,1.3-0.5,2-0.5c0.5,0,1,0.1,1.4,0.3
		c0.5,0.4,0.7,0.9,0.7,1.5c-0.1,1.5-0.7,2.9-1.7,4C175.1,40.4,175,40.4,174.8,40.4L174.8,40.4z"/>
	<path class="st1" d="M174.8,35c0.4,0,0.8,0.1,1.1,0.2c0.1,0.1,0.4,0.3,0.4,1c-0.1,1.3-0.6,2.6-1.4,3.7h-0.1
		c-1.3-0.2-2.6-0.9-3.6-1.8c0.3-1.1,0.9-2.1,1.8-2.8C173.5,35.1,174.1,34.9,174.8,35 M174.7,34c-0.8,0-1.6,0.2-2.2,0.6
		c-1,0.7-2.8,3.1-2.1,4.1c1.2,1.3,2.7,2.1,4.4,2.3c0.2,0,0.4,0,0.6-0.1c1-0.7,3.1-5.1,1-6.4C175.8,34.1,175.3,33.9,174.7,34
		L174.7,34z"/>
	<path class="st1" d="M180.6,46.3c-1.1,0-5.3-3.1-5.9-4c-0.1-0.2-0.1-0.8,0.4-1.6c0.4-0.7,0.9-1.2,1.5-1.7c2-0.8,4.2-1.2,6.4-1.2
		c1,0,1.9,0.1,2.9,0.4c0.6,0.2,1.2,1.4,1.1,2.9C186.9,42.2,186.1,45.7,180.6,46.3L180.6,46.3z"/>
	<path class="st1" d="M183.1,38.3c0.9,0,1.8,0.1,2.7,0.4c0.4,0.1,0.9,1.1,0.7,2.4c-0.1,1-0.8,4.2-5.9,4.8c-0.9-0.1-4.9-2.8-5.5-3.7
		c0.3-1.1,0.9-2,1.8-2.7C179,38.7,181,38.3,183.1,38.3 M183.1,37.3c-2.3,0-4.6,0.4-6.7,1.3c-1,0.7-2.8,3.1-2.1,4.1s5,4.2,6.3,4.2
		h0.1c8.1-1,7.8-8.4,5.4-9.1C185.2,37.4,184.2,37.3,183.1,37.3L183.1,37.3z"/>
	<path class="st1" d="M182.2,61.2c-1.6,0-4.2-0.2-9.1-0.5c-1.2-0.1-2-0.4-2.2-0.8s0-1,0.2-1.5s1.1-0.7,3.2-0.7c1,0,1.9,0.1,2.9,0.2
		c3.5,0.4,6.5,2.4,6.6,3C183.9,61,183.8,61.2,182.2,61.2z"/>
	<path class="st1" d="M174.4,58.2L174.4,58.2c1,0,1.9,0.1,2.9,0.2c2.1,0.2,4.1,1,5.9,2.3c-0.2,0-0.5,0-0.9,0c-1.6,0-4.2-0.2-9.1-0.5
		c-1.2-0.1-1.7-0.4-1.8-0.5s-0.1-0.3,0.3-1C171.5,58.6,172,58.1,174.4,58.2 M174.4,57.1c-2,0-3.3,0.3-3.7,1c-0.5,0.9-1.2,2.7,2.4,3
		c4.8,0.3,7.5,0.5,9.1,0.5s2.1-0.2,2.2-0.8c0.1-1-3.5-3.2-7.1-3.6C176.3,57.2,175.3,57.2,174.4,57.1L174.4,57.1z"/>
	<path class="st1" d="M158.1,59c-0.3,0-0.7,0-1-0.1c-4.5-0.7-7.6-0.9-9.7-1.1c-0.9,0-1.8-0.1-2.7-0.3c0.6-0.7,4.7-2.3,8-2.3
		c0.3,0,0.6,0,0.9,0c4.4,0.5,5.8,1.4,5.9,1.9c0.2,0.5,0.2,1,0,1.4C159.1,58.9,158.7,59,158.1,59L158.1,59z"/>
	<path class="st1" d="M152.8,55.7c0.3,0,0.5,0,0.8,0c4.1,0.5,5.3,1.3,5.4,1.5c0.2,0.7,0.1,0.9,0.1,1s-0.4,0.2-0.9,0.2
		c-0.3,0-0.7,0-1-0.1c-4.5-0.7-7.6-0.9-9.7-1.1l-1.2-0.1C148.2,56.2,150.5,55.7,152.8,55.7 M152.7,54.6c-3.6,0-8.5,1.9-8.6,2.8
		s3.1,0.4,12.9,1.8c0.4,0.1,0.7,0.1,1.1,0.1c2.4,0,2.1-1.6,1.8-2.5c-0.3-1.1-2.7-1.9-6.3-2.3C153.3,54.7,153,54.7,152.7,54.6
		L152.7,54.6z"/>
	<path class="st1" d="M153.2,65.6c-2.6-0.1-4.3-0.7-4.9-1.6l0.6,0.2c1.2,0.4,2.4,0.6,3.6,0.8h0.3c0.7,0,1.3-0.1,2-0.3
		c0.4-0.1,0.9-0.2,1.3-0.2c0.1,0,0.2,0,0.2,0c-0.1,0.6-2.1,1.1-3.2,1.1L153.2,65.6z"/>
	<path class="st1" d="M148,63.4c-0.2,0-0.3,0.1-0.2,0.5c0.6,2.2,4.9,2.2,5.5,2.2h0.1c0.8,0,3.6-0.4,3.6-1.6c0-0.4-0.3-0.5-0.7-0.5
		c-0.8,0-2.2,0.4-3.3,0.4h-0.3C151.1,64.2,149.5,63.9,148,63.4L148,63.4z"/>
	<path class="st1" d="M164.9,79.6c-2,0-3.5-0.3-4-0.9c-0.1-0.1-0.2-0.3-0.1-0.5l0,0c0.3,0,0.5,0.1,0.7,0.2c1.1,0.3,2.2,0.5,3.3,0.5
		h0.5c1.1-0.1,2.1-0.2,3.2-0.5c0.2-0.1,0.4-0.1,0.6-0.2l0,0c0,0.6-1,1.1-3.1,1.3C165.6,79.6,165.3,79.6,164.9,79.6z"/>
	<path class="st1" d="M160.8,77.7c-0.3,0-0.4,0.1-0.5,0.4c-0.3,1.7,2.7,2,4.6,2c0.5,0,0.9,0,1.2,0c1.7-0.2,3.5-0.6,3.5-1.8
		c0-0.4-0.1-0.5-0.4-0.5c-1.3,0.3-2.6,0.6-3.9,0.7h-0.4C163.5,78.4,162.1,78.1,160.8,77.7L160.8,77.7z"/>
	<path class="st1" d="M175.8,66.4c-0.4,0-0.9,0-1.3-0.1c-0.6-0.1-2-0.6-2.1-1c0.3,0.1,0.6,0.2,0.9,0.3c0.6,0.2,1.1,0.3,1.7,0.4
		c0.2,0,0.4,0,0.6,0c0.7,0,1.4-0.1,2.1-0.2h0.2C177.3,66.2,176.6,66.4,175.8,66.4z"/>
	<path class="st1" d="M172.3,64.7c-0.2,0-0.4,0.1-0.4,0.3c0,0,0,0,0,0c-0.1,1,2,1.6,2.5,1.7c0.5,0.1,1,0.1,1.4,0.1
		c1.1,0,2.4-0.2,2.9-1.2c0.1-0.3,0-0.4-0.2-0.4c-0.5,0-1.5,0.3-2.8,0.3H175C174.1,65.5,172.9,64.8,172.3,64.7L172.3,64.7z"/>
	<path class="st2" d="M165.1,58c1.3,5.6,5.6,8.8,4.7,10.7c-0.8,1.6-3.8,1.9-6.2-0.5"/>
	<path class="st2" d="M124.9,57.4c-0.9,3.8-2.3,4.7-4.1,4.3s-1.6-3.4-3.1-4.7c-2.6-2.3-2-8.2,2-9.5
		C125.3,45.9,125.8,53.3,124.9,57.4z"/>
	<path class="st2" d="M119,51.4c4,0.3,3.6,3.5,2.7,6.3"/>
</g>
</svg>
