<?xml version="1.0" encoding="utf-8"?>
<!-- Generator: Adobe Illustrator 25.3.1, SVG Export Plug-In . SVG Version: 6.00 Build 0)  -->
<svg version="1.1"
	 id="svg965" xmlns:inkscape="http://www.inkscape.org/namespaces/inkscape" xmlns:sodipodi="http://sodipodi.sourceforge.net/DTD/sodipodi-0.dtd" xmlns:svg="http://www.w3.org/2000/svg"
	 xmlns="http://www.w3.org/2000/svg" xmlns:xlink="http://www.w3.org/1999/xlink" x="0px" y="0px" viewBox="0 0 500 500"
	 style="enable-background:new 0 0 500 500;" xml:space="preserve">
<style type="text/css">
	.st0{fill:none;stroke:#282826;stroke-width:4;stroke-linecap:round;stroke-linejoin:round;stroke-miterlimit:15.1181;}
	.st1{fill:none;stroke:#282826;stroke-width:2;stroke-linecap:round;stroke-linejoin:round;stroke-miterlimit:15.1181;}
</style>
<g>
	<path id="rect4433" class="st0" d="M96.7,17.4h306.8c43.4,0,78.6,35.2,78.6,78.6v306.8c0,43.4-35.2,78.6-78.6,78.6H96.7
		c-43.4,0-78.6-35.2-78.6-78.6V96C18.1,52.6,53.4,17.4,96.7,17.4z"/>
	<path id="path4861" sodipodi:nodetypes="csc" class="st1" d="M19.7,374.3c0,0,93.9-68.5,105,12.9c7,51.5,70.7,94.4,70.7,94.4"/>
	<path id="path4863" sodipodi:nodetypes="csc" class="st1" d="M18.1,413.8c0,0,40.1-11,66.8,11c40,33.1,48.5,56.4,48.5,56.4"/>
	<path id="path4865" sodipodi:nodetypes="csc" class="st1" d="M17.9,317.3c0,0,173.9-111.7,153.1-20.1
		c-30.4,134.4,124.2,185.4,124.2,185.4"/>
	<path id="path5593" sodipodi:nodetypes="csc" class="st1" d="M18.8,219.9c0,0,257-84.3,227.2,4.9c-45.6,137,120,257.1,120,257.1"/>
	<path id="path5595" sodipodi:nodetypes="csc" class="st1" d="M308.9,19.1c0,0-47.5,94.4,24.6,133.5
		c126.9,68.9,147.7,118.8,147.7,118.8"/>
	<path id="path8501" sodipodi:nodetypes="csc" class="st1" d="M481.1,125.5c0,0-51.4-15.3-77.9-37.4c-40-33.1-37.8-70.3-37.8-70.3"
		/>
	<path id="path9229" sodipodi:nodetypes="csc" class="st1" d="M411,480.1c0,0-148-208.9-49.1-213.7c46.7-2.3,119.7,64.7,119.7,64.7"
		/>
	<path id="path9283" sodipodi:nodetypes="ssss" class="st1" d="M168.8,136.9c-49.3-13.6-64.1-47.6-23.9-58.6
		c26.7-7.4,84.8,17.3,96.3,31.2C264.1,137.3,215.4,149.7,168.8,136.9z"/>
	<path id="path9286" sodipodi:nodetypes="csc" class="st1" d="M20.5,154.7c52.4-34.8,38.1-89.6,93.9-105.1
		c37.2-10.4,135.9,19.7,154.4-30.9"/>
	<path id="path9288" sodipodi:nodetypes="ssss" class="st1" d="M380.8,355.4c-26.7-33.4-19.9-63.6,12.6-51.4
		c21.7,8,48.8,53.2,49.8,68.2C445,402.3,405.9,386.9,380.8,355.4L380.8,355.4z"/>
</g>
</svg>
