<?xml version="1.0" encoding="utf-8"?>
<!-- Generator: Adobe Illustrator 25.3.1, SVG Export Plug-In . SVG Version: 6.00 Build 0)  -->
<svg version="1.1"
	 id="svg6215" xmlns:inkscape="http://www.inkscape.org/namespaces/inkscape" xmlns:sodipodi="http://sodipodi.sourceforge.net/DTD/sodipodi-0.dtd" xmlns:svg="http://www.w3.org/2000/svg"
	 xmlns="http://www.w3.org/2000/svg" xmlns:xlink="http://www.w3.org/1999/xlink" x="0px" y="0px" viewBox="0 0 500 500"
	 style="enable-background:new 0 0 500 500;" xml:space="preserve">
<style type="text/css">
	.st0{fill:none;stroke:#000000;stroke-width:4;stroke-linecap:round;stroke-linejoin:round;stroke-miterlimit:17.7447;}
	.st1{fill:none;stroke:#000000;stroke-width:2;stroke-linecap:round;stroke-linejoin:round;stroke-miterlimit:15.1181;}
</style>
<path id="path7428" inkscape:transform-center-x="16.375602" inkscape:transform-center-y="-2.0428635" sodipodi:nodetypes="zzzz" class="st0" d="
	M439.4,484C373,533.9,21.5,351,14.5,269.6S346.1-16.7,412.6,8.9S505.8,434.2,439.4,484L439.4,484z"/>
<path id="path7796" sodipodi:nodetypes="csc" class="st1" d="M18.5,250.1c0,0,32.1,43.6,125.8,34.1c139.5-14.1,57,138.5,57,138.5"/>
<path id="path7798" sodipodi:nodetypes="csc" class="st1" d="M59.6,197.1c0,0,26,52.8,118.9,36.9c192-32.8,85.2,220.1,85.2,220.1"/>
<path id="path7800" sodipodi:nodetypes="csc" class="st1" d="M177.2,412.3c0,0,28.4-58.7,2.1-78.6c-46.5-35.2-125.5-6.9-125.5-6.9"
	/>
<path id="path7802" sodipodi:nodetypes="csc" class="st1" d="M153.1,398.4c0,0,16.1-33.4,1.2-44.7c-26.4-20-71.3-3.9-71.3-3.9"/>
<path id="path7804" sodipodi:nodetypes="csc" class="st1" d="M474.4,380.3c0,0-52.7-32.6-79.7-13.7
	c-47.8,33.5-66.5,111.1-66.5,111.1"/>
<path id="path7806" sodipodi:nodetypes="ssssss" class="st1" d="M423.4,220c9.3,71.6-38.2,113.7-60,106.2
	c-29.9-10.3-13.3-55.3-63-113c-27.3-31.7-97-22.7-72.2-62.9c31.2-50.5,141.8-74.2,138.6-33.8C362.1,175.8,413.8,146.4,423.4,220z"/>
<path id="path7809" sodipodi:nodetypes="sssss" class="st1" d="M403.4,239c-28.3,131.3-60.9-6-66.8-29.4c-10-40.3-87.7-31.8-70.9-59
	c21.1-34.2,82.9-42.1,80.7-14.7C343.3,175.9,414,189.9,403.4,239z"/>
<path id="path7811" sodipodi:nodetypes="csccssc" class="st1" d="M293.2,466.6c16.8-60.2,67.7-142.4-6.3-228.3
	C246.2,191,166,185.1,114.8,150.1 M234.8,70.8c23.1,27.5,165.6-40.8,160.8,19.4c-7,88.2,54.9,22.3,53.9,132.7
	c-0.7,75.7-14.8,95,27.2,108.6"/>
<path id="path296" sodipodi:nodetypes="csc" class="st1" d="M143.4,127.9c0,0,44.7-3.9,66.8-10.4c21-6.3,2.9-34.6,2.9-34.6"/>
</svg>
