<?xml version="1.0" encoding="utf-8"?>
<!-- Generator: Adobe Illustrator 25.3.1, SVG Export Plug-In . SVG Version: 6.00 Build 0)  -->
<svg version="1.1"
	 id="svg5" xmlns:inkscape="http://www.inkscape.org/namespaces/inkscape" xmlns:sodipodi="http://sodipodi.sourceforge.net/DTD/sodipodi-0.dtd" xmlns:svg="http://www.w3.org/2000/svg"
	 xmlns="http://www.w3.org/2000/svg" xmlns:xlink="http://www.w3.org/1999/xlink" x="0px" y="0px" viewBox="0 0 500 500"
	 style="enable-background:new 0 0 500 500;" xml:space="preserve">
<style type="text/css">
	.st0{fill:none;stroke:#000000;stroke-width:3.255;stroke-linecap:round;stroke-linejoin:round;stroke-miterlimit:15.1176;}
	.st1{fill:none;stroke:#000000;stroke-width:2;stroke-linecap:round;stroke-linejoin:round;stroke-miterlimit:15.1181;}
</style>
<g>
	
		<ellipse id="path234" transform="matrix(0.6236 -0.7817 0.7817 0.6236 -101.6489 289.6765)" class="st0" cx="250" cy="250.4" rx="157.7" ry="283.5"/>
	<path id="ellipse391" sodipodi:nodetypes="sssss" class="st1" d="M385.9,288c-25,31.3-110.7,84.9-140.5,19.2
		c-27.2-59.7-85.7-143.1-60.7-174.5s81.9-28,138.3,17S411,256.7,385.9,288z"/>
	<path id="path997" sodipodi:nodetypes="sssss" class="st1" d="M351.6,262.4c-16.2,20.3-78,66.5-84.8-0.6
		c-6.4-61.7-66.9-90-50.6-110.4c16.2-20.3,59-13.2,95.6,16S367.8,242.1,351.6,262.4L351.6,262.4z"/>
	<path id="path999" sodipodi:nodetypes="csccsc" class="st1" d="M9.9,129.2c39.4,34.1,63.8-0.6,96.2-41.2s132.3,0.2,149.8-19.3
		 M442.4,227.7c-21,12,26.7,97.4-6,138.6c-16,20.2-83.3,27.9-117.6,91.8"/>
	<path id="path1064" sodipodi:nodetypes="csc" class="st1" d="M21.5,205.7c0,0,86,17.3,97.7,40c16.4,32-4.6,95.4-4.6,95.4"/>
	<path id="path1066" sodipodi:nodetypes="csc" class="st1" d="M10.6,164.8c0,0,113.4,21,145.3,54.4c37.9,39.8,0.4,158.9,0.4,158.9"
		/>
	<path id="path1068" sodipodi:nodetypes="csc" class="st1" d="M131.7,34c0,0-14.1,11.6-34.8,26.3c-29,20.5-67.7,16.2-67.7,16.2"/>
	<path id="path1070" sodipodi:nodetypes="csc" class="st1" d="M182.4,395.6c0,0,77.5-33.4,94.5-17.6c26.4,24.4,6.9,69.2,6.9,69.2"/>
	<path id="path1798" sodipodi:nodetypes="sssss" class="st1" d="M156.4,123.9c0,22.2-13.5,31-22.4,31c-8.9,0-18.9-1.8-18.9-24
		s20.3-34.8,29.3-34.8C153.4,96.2,156.4,101.6,156.4,123.9z"/>
	<path id="path3979" sodipodi:nodetypes="csc" class="st1" d="M490.7,381c0,0-41.2,20.3-62,35c-29,20.5-43.7,49.9-43.7,49.9"/>
	<path id="path3981" sodipodi:nodetypes="sssss" class="st1" d="M408.3,336.8c0,18-23.1,35.5-37.5,41.4c-9.1,3.7-50.2,6.6-42.2-9.5
		c6.8-13.6,28.9-22.4,39.9-27.9C383.7,333.3,408.3,318.8,408.3,336.8z"/>
</g>
</svg>
