<svg xmlns="http://www.w3.org/2000/svg" width="300" height="307.03" viewBox="0 0 300 307.03"><defs><style>.cls-1{fill:#282826;}.cls-2,.cls-4,.cls-6{fill:#e8d5ba;}.cls-3,.cls-5,.cls-7{fill:none;}.cls-3,.cls-4,.cls-5,.cls-6,.cls-7{stroke:#282826;}.cls-3,.cls-4,.cls-5{stroke-linecap:round;stroke-linejoin:round;}.cls-3,.cls-4{stroke-width:4px;}.cls-5{stroke-width:3px;}.cls-6,.cls-7{stroke-miterlimit:10;}.cls-6{stroke-width:0.75px;}.cls-7{stroke-width:0.25px;}</style></defs><g id="Layer_2" data-name="Layer 2"><g id="blob"><path id="base-blob" class="cls-1" d="M77.79,43.14c34.49-17.55,80.15-59,102-32.9,11.77,14.1,10.27,27.3,23.15,40.06,21.15,20.94,57.74-3.74,74.91,16.88,15.54,18.66-43,51.23-20.21,81.65,23.95,31.89-18,26.94-21.21,36.68-6.13,18.7,39,35.83,30.32,57.6-6.55,16.38-43.5,7.36-58.78,9.71-17.17,2.64-15.24,54.18-43.84,45.23-23.16-7.24-26.79-45.87-50.29-36.11C103.47,266.25,63,308.86,44.42,298c-15-8.78-11.64-28.08-8-42,17.11-65.27-31.76-67-34.6-86.87-3.3-23.11,29.49-35.7,25.41-59.85-2.44-14.41-28.92-39-21.93-52C16.36,36.7,62.3,51,77.79,43.14Z"/><ellipse id="blob-7" class="cls-1" cx="6.2" cy="235.66" rx="6.2" ry="6.21"/><ellipse id="blob-6" class="cls-1" cx="118.4" cy="298.7" rx="8.31" ry="8.33"/><path id="blob-5" class="cls-1" d="M285.46,202.39c-7.12-.73-11.32-8.34-8.12-15.84,3.09-7.26,6.4-15.18,13.64-14.67,7,.49,7.59,9.56,6.81,14.55C297.27,189.82,293.92,203.27,285.46,202.39Z"/><ellipse id="blob-4" class="cls-1" cx="294.41" cy="138.1" rx="5.59" ry="5.6"/><ellipse id="blob-3" class="cls-1" cx="225.5" cy="35.48" rx="6.2" ry="6.21"/><ellipse id="blob-2" class="cls-1" cx="102.89" cy="4.42" rx="4.41" ry="4.41"/><path id="blob-1" class="cls-1" d="M62.71,31.87c-5-2.31-2.32-11.15,5.77-17.53C82.11,3.59,89,7.14,89.44,11c.68,5.44-4.29,8.43-10,13.52C71.12,31.91,67.54,34.09,62.71,31.87Z"/></g><g id="chip-base"><path class="cls-2" d="M151.73,222.27,79.51,194.5a24.83,24.83,0,0,1-14.25-32.06L93,90.11a24.76,24.76,0,0,1,32-14.28l72.22,27.77a24.81,24.81,0,0,1,14.25,32.06L183.74,208A24.76,24.76,0,0,1,151.73,222.27Z"/><path class="cls-1" d="M148.11,190l-44.34-17a10.88,10.88,0,0,1-6.26-14.05l17-44.44a10.89,10.89,0,0,1,14.07-6.26l44.34,17a10.88,10.88,0,0,1,6.26,14l-17,44.43A10.89,10.89,0,0,1,148.11,190Z"/></g><g id="circuit"><line class="cls-3" x1="118.83" y1="90.45" x2="130.57" y2="94.88"/><path class="cls-3" d="M159.79,108.71c-16.89-7.83-16.69-5.87-20.61,3.57"/><path class="cls-3" d="M91.86,143.39c-4.61,10.22-4.33,11.06,7.68,15"/><path class="cls-3" d="M179.78,190.87c-4.62,10.22-4.34,11.06,7.67,15"/><path class="cls-3" d="M194.77,146c-4.4,10.32-4.1,11.15,8,14.81"/><path class="cls-3" d="M97.06,190.73c10.74,3.24,11.19,4,6.24,15.62"/><path class="cls-4" d="M125.49,110.53c3.16-8,9.22-23.85,12.39-31.82"/><path class="cls-4" d="M90.05,201.9c3.18-8,9.26-23.85,12.43-31.82"/><path class="cls-4" d="M115.62,214.42c3.18-8,9.25-23.85,12.43-31.81"/><path class="cls-4" d="M155.9,119.11c3.17-8,8.33-20.58,10.8-27.68"/><path class="cls-4" d="M192.92,116.27c3.17-8,5.48-13.3,5.48-13.3"/><line class="cls-4" x1="194.81" y1="122.91" x2="214.31" y2="130.36"/><line class="cls-4" x1="86.94" y1="101.66" x2="116.5" y2="113.12"/><line class="cls-4" x1="162.86" y1="182.79" x2="192.41" y2="194.25"/><line class="cls-4" x1="170.42" y1="163.23" x2="199.98" y2="174.69"/><line class="cls-4" x1="146.18" y1="88.46" x2="149.16" y2="81.12"/><line class="cls-4" x1="182.14" y1="173.5" x2="183.88" y2="168.78"/><line class="cls-4" x1="109.96" y1="128.53" x2="95.62" y2="123.06"/><line class="cls-4" x1="89.62" y1="137.14" x2="76.05" y2="131.93"/><line class="cls-4" x1="96.66" y1="180.19" x2="83.1" y2="174.97"/><line class="cls-4" x1="137.75" y1="204.06" x2="124.18" y2="198.84"/><path class="cls-4" d="M167.88,123.45c.91-2.48,2.18-5.21,5.35-13.18"/><path class="cls-4" d="M156.92,226.75c.91-2.48,2.18-5.2,5.35-13.17"/><line class="cls-4" x1="93.16" y1="116.2" x2="96.51" y2="107.45"/><circle class="cls-5" cx="113.88" cy="88.75" r="3.78"/><circle class="cls-5" cx="190.83" cy="121.03" r="3.78"/><circle class="cls-5" cx="196.31" cy="141.71" r="3.78"/><circle class="cls-5" cx="91.44" cy="120.97" r="3.78"/><circle class="cls-5" cx="78.14" cy="173.01" r="3.78"/><circle class="cls-5" cx="141.92" cy="205.88" r="3.78"/><circle class="cls-5" cx="164.36" cy="209.01" r="3.78"/><circle class="cls-5" cx="94.12" cy="139.29" r="3.78"/><circle class="cls-5" cx="144.6" cy="92.86" r="3.78"/><circle class="cls-5" cx="180.73" cy="178.03" r="3.78"/><circle class="cls-5" cx="174.92" cy="105.97" r="3.78"/></g><g id="heart"><path id="heart-base-2" class="cls-6" d="M164,145.1c-.21,3.63-1.69,8.69-7.26,14.67-6.65,7.14-8.26,24.92-10.46,7.18-1-7.86-.74-14.22-3.13-14.71-1.79-.36-4.31,4.73-7.57,5.84s-3.66-2.93-5-6.26c-.72-1.76-2.42-4.74-4.66-5.33-3.42-.9-7.11,5.29-10.86-.28l-.06-.52c0-.27-.07-.55-.08-.58-1.42-11,11.61-23.46,24.55-8C152.33,121.63,165.36,134.14,164,145.1Z"/><path class="cls-2" d="M144.6,173.74c.48.91.62,2.17-.16,2.53s-1.5-.06-2-1-.34-1.89.45-2.25A1.32,1.32,0,0,1,144.6,173.74Z"/><circle class="cls-2" cx="146.91" cy="179.14" r="0.93"/><path class="cls-7" d="M125.62,132.58c-.13,1.22,3.78,2.83,5.93,2.54,1.86-.25.49-2.14-.59-2.67C129.2,131.57,125.78,131,125.62,132.58Z"/><path class="cls-7" d="M117.53,134.93c-.26,2.86.13,6.39,2.61,7,3.31.87,8.66-2.26,12.91-.91s2.61,5.21,7.31,6.13c5.55,1.08,11.8-8.16,13.06-3.41,2.1,8,7.53.83,8.33,9.41"/><path class="cls-7" d="M121.7,131.53c-.26,2.87.4,5.87,2.87,6.53,3.32.87,6.79-1.31,10.57.91s2-2.61,2.48-3.65"/><path class="cls-7" d="M141.68,134.63c2.15.69-.1,5.28.44,7.49.81,3.32,10.12-6.9,11.69-4.11,4.09,7.28,5.87-.64,9.73,9.05"/><path class="cls-7" d="M146.32,131.4c-.58,2.06-.34,4.29.64,4.36,2.2.14,4.31-4.63,5.77-2.6,5.14,7.19,6.07.79,10.91,7.78"/><path class="cls-7" d="M144.56,153.71c4.21-1.05,4.6,5.22,7.67,1.82,2.32-2.56,3.06,2.68,3.52,5.09"/><path class="cls-7" d="M145.51,159.58c2.67.36,1.94,6.27,4.56,3.65.85-.85,3-1.66,3,1.66"/><path class="cls-7" d="M128.23,148c2.67.36,4.89-.46,6.52,2,1.34,2,4.56,1,6.52,3"/><path class="cls-7" d="M115.12,140.47c1,5.22,6.58,4.56,8.54,6.52"/><path class="cls-7" d="M131.68,154.88c2.68.36,4.37-.39,6.33,1.57"/><path class="cls-7" d="M146.42,167.79c2.68.36,2.27,3.67,4.89,1.05"/><path class="cls-7" d="M154.49,130.52c.1,3.08,5.82,5.19,7.19,5.33"/></g></g></svg>