<?xml version="1.0" encoding="utf-8"?>
<!-- Generator: Adobe Illustrator 25.3.1, SVG Export Plug-In . SVG Version: 6.00 Build 0)  -->
<svg version="1.1" id="Layer_1" xmlns="http://www.w3.org/2000/svg" xmlns:xlink="http://www.w3.org/1999/xlink" x="0px" y="0px"
	 viewBox="0 0 300 307" style="enable-background:new 0 0 300 307;" xml:space="preserve">
<style type="text/css">
	.st0{fill:#282826;}
	.st1{fill:#E8D5BA;}
	.st2{fill:none;stroke:#282826;stroke-width:4;stroke-linecap:round;stroke-linejoin:round;}
	.st3{fill:#E8D5BA;stroke:#282826;stroke-width:4;stroke-linecap:round;stroke-linejoin:round;}
	.st4{fill:none;stroke:#282826;stroke-width:3;stroke-linecap:round;stroke-linejoin:round;}
	.st5{fill:#E8D5BA;stroke:#282826;stroke-width:0.75;stroke-miterlimit:10;}
	.st6{fill:none;stroke:#282826;stroke-width:0.25;stroke-miterlimit:10;}
</style>
<g id="blob">
	<path id="base-blob" class="st0" d="M77.8,43.1c34.5-17.5,80.2-59,102-32.9c11.8,14.1,10.3,27.3,23.1,40.1
		c21.1,20.9,57.7-3.7,74.9,16.9c15.5,18.7-43,51.2-20.2,81.7c24,31.9-18,26.9-21.2,36.7c-6.1,18.7,39,35.8,30.3,57.6
		c-6.5,16.4-43.5,7.4-58.8,9.7c-17.2,2.6-15.2,54.2-43.8,45.2c-23.2-7.2-26.8-45.9-50.3-36.1c-10.4,4.3-50.8,46.9-69.4,36.1
		c-15-8.8-11.6-28.1-8-42c17.1-65.3-31.8-67-34.6-86.9c-3.3-23.1,29.5-35.7,25.4-59.8c-2.4-14.4-28.9-39-21.9-52
		C16.4,36.7,62.3,51,77.8,43.1z"/>
	<ellipse id="blob-7" class="st0" cx="6.2" cy="235.7" rx="6.2" ry="6.2"/>
	<ellipse id="blob-6" class="st0" cx="118.4" cy="298.7" rx="8.3" ry="8.3"/>
	<path id="blob-5" class="st0" d="M285.5,202.4c-7.1-0.7-11.3-8.3-8.1-15.8c3.1-7.3,6.4-15.2,13.6-14.7c7,0.5,7.6,9.6,6.8,14.6
		C297.3,189.8,293.9,203.3,285.5,202.4z"/>
	<ellipse id="blob-4" class="st0" cx="294.4" cy="138.1" rx="5.6" ry="5.6"/>
	<ellipse id="blob-3" class="st0" cx="225.5" cy="35.5" rx="6.2" ry="6.2"/>
	<ellipse id="blob-2" class="st0" cx="102.9" cy="4.4" rx="4.4" ry="4.4"/>
	<path id="blob-1" class="st0" d="M62.7,31.9c-5-2.3-2.3-11.1,5.8-17.5C82.1,3.6,89,7.1,89.4,11c0.7,5.4-4.3,8.4-10,13.5
		C71.1,31.9,67.5,34.1,62.7,31.9z"/>
</g>
<g id="chip-base">
	<path class="st1" d="M151.7,222.3l-72.2-27.8c-12.8-4.9-19.2-19.3-14.2-32.1L93,90.1c4.9-12.8,19.2-19.2,32-14.3c0,0,0,0,0,0
		l72.2,27.8c12.8,4.9,19.2,19.3,14.2,32.1L183.7,208C178.9,220.8,164.5,227.2,151.7,222.3C151.8,222.3,151.7,222.3,151.7,222.3z"/>
	<path class="st0" d="M148.1,190l-44.3-17c-5.6-2.2-8.4-8.4-6.3-14.1l17-44.4c2.2-5.6,8.5-8.4,14.1-6.3l44.3,17
		c5.6,2.2,8.4,8.4,6.3,14l-17,44.4C160.1,189.3,153.8,192.1,148.1,190C148.1,190,148.1,190,148.1,190z"/>
</g>
<g id="circuit">
	<line class="st2" x1="118.8" y1="90.4" x2="130.6" y2="94.9"/>
	<path class="st2" d="M159.8,108.7c-16.9-7.8-16.7-5.9-20.6,3.6"/>
	<path class="st2" d="M91.9,143.4c-4.6,10.2-4.3,11.1,7.7,15"/>
	<path class="st2" d="M179.8,190.9c-4.6,10.2-4.3,11.1,7.7,15"/>
	<path class="st2" d="M194.8,146c-4.4,10.3-4.1,11.1,8,14.8"/>
	<path class="st2" d="M97.1,190.7c10.7,3.2,11.2,4,6.2,15.6"/>
	<path class="st3" d="M125.5,110.5c3.2-8,9.2-23.8,12.4-31.8"/>
	<path class="st3" d="M90.1,201.9c3.2-8,9.3-23.9,12.4-31.8"/>
	<path class="st3" d="M115.6,214.4c3.2-8,9.2-23.9,12.4-31.8"/>
	<path class="st3" d="M155.9,119.1c3.2-8,8.3-20.6,10.8-27.7"/>
	<path class="st3" d="M192.9,116.3c3.2-8,5.5-13.3,5.5-13.3"/>
	<line class="st2" x1="194.8" y1="122.9" x2="214.3" y2="130.4"/>
	<line class="st2" x1="86.9" y1="101.7" x2="116.5" y2="113.1"/>
	<line class="st2" x1="162.9" y1="182.8" x2="192.4" y2="194.2"/>
	<line class="st2" x1="170.4" y1="163.2" x2="200" y2="174.7"/>
	<line class="st2" x1="146.2" y1="88.5" x2="149.2" y2="81.1"/>
	<line class="st2" x1="182.1" y1="173.5" x2="183.9" y2="168.8"/>
	<line class="st2" x1="110" y1="128.5" x2="95.6" y2="123.1"/>
	<line class="st2" x1="89.6" y1="137.1" x2="76.1" y2="131.9"/>
	<line class="st2" x1="96.7" y1="180.2" x2="83.1" y2="175"/>
	<line class="st2" x1="137.8" y1="204.1" x2="124.2" y2="198.8"/>
	<path class="st3" d="M167.9,123.4c0.9-2.5,2.2-5.2,5.4-13.2"/>
	<path class="st3" d="M156.9,226.8c0.9-2.5,2.2-5.2,5.4-13.2"/>
	<line class="st2" x1="93.2" y1="116.2" x2="96.5" y2="107.4"/>
	<circle class="st4" cx="113.9" cy="88.8" r="3.8"/>
	<circle class="st4" cx="190.8" cy="121" r="3.8"/>
	<circle class="st4" cx="196.3" cy="141.7" r="3.8"/>
	<circle class="st4" cx="91.4" cy="121" r="3.8"/>
	<circle class="st4" cx="78.1" cy="173" r="3.8"/>
	<circle class="st4" cx="141.9" cy="205.9" r="3.8"/>
	<circle class="st4" cx="164.4" cy="209" r="3.8"/>
	<circle class="st4" cx="94.1" cy="139.3" r="3.8"/>
	<circle class="st4" cx="144.6" cy="92.9" r="3.8"/>
	<circle class="st4" cx="180.7" cy="178" r="3.8"/>
	<circle class="st4" cx="174.9" cy="106" r="3.8"/>
</g>
<g id="heart">
	<path id="heart-base" class="st1" d="M164,145.1c-0.2,3.6-3.5,11.4-9.2,17c-0.3,0.3-0.7,0.6-1,0.9c-2.4,2.2-8.8,5.1-9,5.2
		c-1.7,0.5-3.4,0.7-5.1,0.7h-0.5c-14.8,0-24-17.7-24.3-23.9c-1.4-11,11.6-23.5,24.6-8C152.3,121.6,165.4,134.1,164,145.1z"/>
	<path id="heart-base-2" class="st5" d="M164,145.1c-0.2,3.6-1.7,8.7-7.3,14.7c-6.6,7.1-8.3,24.9-10.5,7.2c-1-7.9-0.7-14.2-3.1-14.7
		c-1.8-0.4-4.3,4.7-7.6,5.8s-3.7-2.9-5-6.3c-0.7-1.8-2.4-4.7-4.7-5.3c-3.4-0.9-7.1,5.3-10.9-0.3l-0.1-0.5c0-0.3-0.1-0.6-0.1-0.6
		c-1.4-11,11.6-23.5,24.6-8C152.3,121.6,165.4,134.1,164,145.1z"/>
	<path class="st1" d="M144.6,173.7c0.5,0.9,0.6,2.2-0.2,2.5s-1.5-0.1-2-1s-0.3-1.9,0.4-2.2C143.6,172.8,144.3,173.1,144.6,173.7z"/>
	<circle class="st1" cx="146.9" cy="179.1" r="0.9"/>
	<path class="st6" d="M125.6,132.6c-0.1,1.2,3.8,2.8,5.9,2.5c1.9-0.2,0.5-2.1-0.6-2.7C129.2,131.6,125.8,131,125.6,132.6z"/>
	<path class="st6" d="M117.5,134.9c-0.3,2.9,0.1,6.4,2.6,7c3.3,0.9,8.7-2.3,12.9-0.9s2.6,5.2,7.3,6.1c5.6,1.1,11.8-8.2,13.1-3.4
		c2.1,8,7.5,0.8,8.3,9.4"/>
	<path class="st6" d="M121.7,131.5c-0.3,2.9,0.4,5.9,2.9,6.5c3.3,0.9,6.8-1.3,10.6,0.9s2-2.6,2.5-3.6"/>
	<path class="st6" d="M141.7,134.6c2.1,0.7-0.1,5.3,0.4,7.5c0.8,3.3,10.1-6.9,11.7-4.1c4.1,7.3,5.9-0.6,9.7,9.1"/>
	<path class="st6" d="M146.3,131.4c-0.6,2.1-0.3,4.3,0.6,4.4c2.2,0.1,4.3-4.6,5.8-2.6c5.1,7.2,6.1,0.8,10.9,7.8"/>
	<path class="st6" d="M144.6,153.7c4.2-1.1,4.6,5.2,7.7,1.8c2.3-2.6,3.1,2.7,3.5,5.1"/>
	<path class="st6" d="M145.5,159.6c2.7,0.4,1.9,6.3,4.6,3.6c0.9-0.9,3-1.7,3,1.7"/>
	<path class="st6" d="M128.2,148c2.7,0.4,4.9-0.5,6.5,2c1.3,2,4.6,1,6.5,3"/>
	<path class="st6" d="M115.1,140.5c1,5.2,6.6,4.6,8.5,6.5"/>
	<path class="st6" d="M131.7,154.9c2.7,0.4,4.4-0.4,6.3,1.6"/>
	<path class="st6" d="M146.4,167.8c2.7,0.4,2.3,3.7,4.9,1.1"/>
	<path class="st6" d="M154.5,130.5c0.1,3.1,5.8,5.2,7.2,5.3"/>
</g>
</svg>
