<?xml version="1.0" encoding="utf-8"?>
<!-- Generator: Adobe Illustrator 25.3.1, SVG Export Plug-In . SVG Version: 6.00 Build 0)  -->
<svg version="1.1" id="Layer_1" xmlns="http://www.w3.org/2000/svg" xmlns:xlink="http://www.w3.org/1999/xlink" x="0px" y="0px"
	 viewBox="0 0 255.6 271" style="enable-background:new 0 0 255.6 271;" xml:space="preserve">
<style type="text/css">
	.st0{fill:#ED2541;stroke:#282826;stroke-miterlimit:10;}
	.st1{fill:#ED2541;stroke:#282826;stroke-width:0.5;stroke-miterlimit:10;}
	.st2{fill:none;stroke:#282826;stroke-width:0.5;stroke-miterlimit:10;}
	.st3{fill:none;stroke:#282826;stroke-miterlimit:10;}
	.st4{fill:none;stroke:#282826;stroke-width:0.75;stroke-miterlimit:10;}
</style>
<g id="Sphere_morph">
	<path class="st0" d="M2.6,146.1c-0.2,4.4,0.2,16.1,1.8,22.4c1.1,4.4,5.2,7.9,5.3,14.4c0.1,3.3-0.4,9,0.9,12
		c2.3,5.2,9.3,4.8,10.6,10.1c1.8,7-2.9,11.6-3.3,20.3c-0.4,9,9-4.5,11.4-2.1c5.7,6-8.6,27.6,3.1,19c10.1-7.4-5.7,23.8-2.7,27.6
		c2.5,3.3,12.4-9.5,23.1-18.8c7.4-6.5-0.5,12.1,6,14.4c5.8,2,15.8-14.4,25.3-4.2c2.3,2.5,5.5,5.9,12.1,6.3c6.3,0.4,16-6.6,23.5-6.3
		c6,0.3,17,2.7,22.6,2.1c7.5-0.8,9.5-5.8,16.2-7.8c8-2.5,17.8-1.6,24.6-5.6c6.1-3.6,10.3-12.4,15.5-16.8s13.8-6.2,18.1-11.4
		c3.9-4.6,4.4-13.1,7.4-17.9c3.5-5.5,8.1-9.1,10.6-14.6c3.3-7.4,6.4-20.8,5.5-27.5c-0.4-3.2-6,4.2-9.3,8.4c-3.4,4.3-5.2,4.9-8.4,3.9
		c-6.6-2.2-8.7-7.2-15.5-4.4s-10.7,6.6-17.2,7.7c-3.3,0.5-5.8-5.8-9.8-4.8c-9.4,2.2-15.5,13.4-22.3,9.4c-10.1-6-21.1-20.1-26.3-13.7
		c-0.8,0.9-2.5,5.1-6.4,8.4c-3.5,3-7.9,2.6-11.5-0.8c-10-9.7-10.3-11.2-17.2-11c-10.2,0.4-18.2,3.8-25.8,1.4
		c-14.5-4.6-11.3-10.9-15.8-10.8c-3.9,0.1-5.1,2.1-8.8,4c-4.3,2.1-8,1.7-9.6-2.3c-2.1-5.3-5.4-8.2-8.4-7c-9.2,3.5-9.1,4.9-14.1,5.1
		C4.2,155.7,2.8,138.1,2.6,146.1z"/>
	<path id="a-shape-3" class="st0" d="M114.2,25.2c4.5-5.5,10.6-12.9,14.1-12.7c3.3,0.2,6.1,8.6,8.4,11.9
		C140.3,29.5,111.5,28.5,114.2,25.2z"/>
	<path id="a-shape-4" class="st0" d="M87.1,30.4c2.1-5.7,6.8-10.4,9.8-10.8c3.3-0.4,8.5-0.1,10.9,3.3
		C111.3,28.1,83.8,39.3,87.1,30.4z"/>
	<path id="a-shape-5" class="st0" d="M60.5,39c2.1-5.7,4.1-15.8,7.1-16.1c3.3-0.4,11.2,5.3,13.5,8.7C84.7,36.7,57.2,47.9,60.5,39z"
		/>
	<path class="st0" d="M212.9,61.7c4.3,6.5,23.5-9.6,27.8-3.9c2.4,3.2-8.1,13.5-9.4,15c-26.2,31.6,31.8-0.7,15.9,15.4
		c-20.6,20.9,1.6,14.1,2.1,19.3s-11.7,12.1-11.1,15.3c0.9,5.1,14.2,1.2,16.1,3.5c4.7,5.6-11.5,9-14.3,22.7c-0.7,3.3,2.2,3.8,8,10.2
		c4.4,4.9-7.1,0.8-12.4,6.3c-2.7,2.8-8.3,10.3-11.7,9.1c-8.2-2.9-7.9-6.4-16.2-5c-6.1,1-16,11.8-21.1,6.1
		c-8.6-9.7-18.4,8.1-25.8,7.4c-8.6-0.8-23.4-24.7-30.1-13.3c-10.6,18-17.4,4.3-25.8-2.4C93.6,158.5,72,178,57.3,156.7
		c-3.9-5.7-16.4,11.4-21.1,1.6c-2.5-5.1-6.1-8.8-11.4-6.3c-10.6,5.1-18.6,3.9-20.1,0.3c-3.9-9.7-0.8-13.7-3.9-23.2
		c-2.1-6.4,5.4-10.8,6.4-16.6c1.4-8.2-5.9-5.8-0.4-11.5c8.4-8.8,6.6-11.6,8.4-19.2c1.8-7.4,9.1-5.7,11.2-13
		c2.6-9.2,2.1-14.7,8.2-15.8c4.4-0.7,9.9-3.5,11.9-6c5.3-6.5,4.5-9.6,5-15.5c0.6-7.9,10.1,3.9,16.6,2c12.7-3.8,6.9-16.2,13.3-17
		c5-0.6,14.3,14,17.8,9.9c6.9-8,10.2-16.8,15.1-10.2c11.2,15.3,20.9,1.4,29.4-4.6s9.5,9.4,15.6,10.4c4.7,0.8,18.8-11.7,22.3-10.6
		c3.7,1.2-1.1,7.9,4.3,9.8c8.9,3.1,26.5-23,30.9-20.7c4.8,2.4-12.7,37-6.3,33.7C228,25.2,207.8,54,212.9,61.7z"/>
</g>
<g id="Front_Hills_Sphere">
	<path id="a-shape-1" class="st1" d="M207.1,58.6c-0.1,0.2-0.3,1.1,4.6,4.5c2.6,1.8,4.3,3.1,4.5,2.4c0.8-3.7,2.9-7.1,0.1-9.4
		C213.8,54.2,207.4,57.8,207.1,58.6z"/>
	<path id="a-shape-2" class="st1" d="M218.6,81.8c0.8,1.5,3.8,2.6,4.9,6.4c0.8,3,4.5,3.7,5.4,2.1c2.7-5.2,4.9-7,2.3-9.7
		C227.6,77,218.5,81.5,218.6,81.8z"/>
	<g id="Upper_sphere_lines">
		<path id="a-136" class="st2" d="M4.7,151.8c2.1-3.5,8.4-3.7,9.4-8.9c0.6-3,6-4.8,11.3,2.1c4.1,5.4,5.4-3.7,7.9-3.5
			c2,1.9,4,3.9,5.8,6.1c2,2.3,5.6-4.2,6.5-0.8c1.6,6.2,10.3,1.8,11.1,3.2s-5.1,5.6-5.5,6.8"/>
		<path id="a-135" class="st2" d="M2.9,144.7c9.9,1.8,5.8-6.6,12.1-9.3c2.2-0.9,8.1,0.2,10.2,4.2c1.8,3.3,11.2-12.1,11.8-8.2
			c1.8,10.6,8,2.5,10.6,10.2c2.3,7.1,7.4,4.9,11.7-0.4c6-7.4,3.5,4.7,4.8,12c0.7,4-0.9,2.1-3.4,7"/>
		<path id="a-134" class="st2" d="M2.5,139c7-0.3,7.8-16.2,2.9-21.9"/>
		<path id="a-133" class="st2" d="M2.3,133.6c4.9-3,2.3-11.2,1.6-13.9"/>
		<path id="a-132" class="st2" d="M25.8,123.4c0.6,0.2,1.5-0.8,1.2-2c-0.5-1.6-1.4-1.1-2-0.9s-2.9,3.2-2.6,3.9
			S25.4,123.2,25.8,123.4z"/>
		<path id="a-131" class="st2" d="M30.1,121.8c0.1-3.8-0.9-6.2-2.5-5.2c-2.4,1.5-7.9,3.1-8.3,4.1c-0.2,0.6-0.5,4.7,1.6,6.2
			c2.1,1.4,4.8-1,5.5-0.9C27.5,126.2,30,125,30.1,121.8z"/>
		<path id="a-130" class="st2" d="M32.5,112.8c-0.8-1.4-14.8,4.7-16.1,7.3c-0.9,1.8-2.5,5.2-0.2,7.5c3.2,3.3,8.9,2,11,1.2
			c2.7-1,4.4-2.1,4.9-3.9C32.8,122.3,33.6,114.4,32.5,112.8z"/>
		<path id="a-129" class="st2" d="M7.2,114.2c9.9,1.8,15.3-10.2,18.8-6.7c1.7,1.7,9,0.4,11.1,4.4c1.7,3,2.9,6.3,3.5,9.8
			c1.8,10.6,5.1,13.5,13.1,12.9c8.9-0.6,13.3-8.2,14.5-2.9c2.1,9.3-2.9,7.4,4.1,18.8c2.2,3.5,4,11.8,1.6,16.6"/>
		<path id="a-128" class="st2" d="M7.4,110.3c7-0.3,8.2-8.4,3.3-14.1"/>
		<path id="a-127" class="st2" d="M6.8,107.5c4.9-3,2.9-6.8,2.2-9.6"/>
		<path id="a-126" class="st2" d="M11.8,94.4c4.4-0.3,15-4,13.5-1c-4.2,8.2,1.6,4.4,3.7,8.3c1.8,3.3,6.8,2.3,14.1,3.8
			c12.3,2.6,1.2,21.7,9.2,21.1c8.9-0.7,21.3-11.3,22.5-6.1c2.1,9.3-3.9,8,3.1,19.4c2.2,3.5,5.5,4.7,3,9.5c-3.7,7.2,17,2.5,19.1,4
			c6.2,4.2,6.6,2.4,13.7,6.6c2.7,1.6,4.7-0.6,5.9-0.4c6.1,1.4,5.1,3.8,3.7,6.1c-1,1.6-8.6,0.8-8.4,3.5c0.6,7,13.2-1.4,12.1,5.6"/>
		<path id="a-125" class="st2" d="M95.3,140.4c-0.6-1-2.8-0.9-3.8,0.9c-1.4,2.5,0.3,2.9,1.3,3.5s4-0.1,4.5-1.3
			C97.7,142.4,95.7,141,95.3,140.4z"/>
		<path id="a-124" class="st2" d="M85.1,137.5c-2.6,3.2,1,9.3,3.8,10.8c2.5,1.3,10.1,0.2,12.1-1c2.4-1.5,6.2-5.8,5.4-7.2
			C103.3,134.3,87.9,135.5,85.1,137.5z"/>
		<path id="a-123" class="st2" d="M62.9,116.6c1.1,0.3,2.6-1.3,2-3.4c-0.8-2.7-2.3-1.8-3.3-1.5c-1.2,0.3-5,5.3-4.5,6.6
			C57.5,119.3,62.2,116.4,62.9,116.6z"/>
		<path id="a-122" class="st2" d="M68.8,113.1c0.7-1.4-2.7-4.1-5.6-3.8c-4.8,0.6-11.4,9.6-10.8,11.9c0.8,2.8,6.8-0.3,8.6-0.9
			C63.6,119.4,68.1,114.8,68.8,113.1z"/>
		<path id="a-121" class="st2" d="M14.1,88.6c6.9-0.3,12.3-7.8,7.4-13.5"/>
		<path id="a-120" class="st2" d="M14.4,85c4.9-3,6.3-6.1,5.5-8.8"/>
		<path id="a-119" class="st2" d="M23.2,73.9c2.4,1.6,4.4,4.4,7.2,5.2c3.5,1-1.4,6.4,0.7,10.4c1.8,3.3,4.1,3,10.3,7.1
			c5.3,3.5,13.7,12.9,20,5.9c7.6-8.6,9.8,0,11,5.3c2.1,9.3,6.7,4,13.8,15.4c2.2,3.5-8.6,7.8,4.7,8.6c8.1,0.5,18.5,2.9,20.5,4.3
			c6.2,4.3-7,9.9,0.1,14.1c2.6,1.6,6.3,5.2,7.4,5.5c6.1,1.4,9,2.9,11.9,0.3c1.9-1.6,4.3-2.6,6.8-2.6c3.6-0.3,1.6,2.4,1.7,5.6
			c0.1,3.5-4.5,1-1.8,8.3"/>
		<path id="a-118" class="st2" d="M149.4,163.1c1.1,1.8,3.2,2.9,5.3,2.5c5.1,0.7,4.5,2.1,8.3-1.4c2.6-2.4-2.9-3.1-6.1-4.4
			c-6-2.3-7.6-3.6-9.4-2.3C146.1,158.6,148.4,161.1,149.4,163.1z"/>
		<path id="a-117" class="st2" d="M145.1,162.7c1.6,3.1,8.8,7.5,12.5,7.2c6.5,0.4,5.5-1,7.7-4.2c3.3-4.9-0.7-5.7-6-7.8
			c-9.9-3.9-12-4.9-15-2.8C142,156.7,143.5,159.5,145.1,162.7z"/>
		<path id="a-116" class="st2" d="M24.2,73c3-0.5,5.5,2.7,10.2,0.1c2.1-1.2-0.1,7,2,11c1.8,3.3,5,4.7,11.2,8.8
			c5.3,3.5,15.2-0.3,20.3,0c8.9,0.6,14.5,6.8,15.7,12.1c2.1,9.3,2,2.3,9,13.7c2.2,3.5-8.6,7.8,4.7,8.6c8.1,0.5,18.5,2.9,20.5,4.3
			c6.2,4.2-6.3,12.9,0.8,17.2c2.7,1.6,9.3,5.1,12.1,2c4.1-4.7,2.2,4.3,9.2-6.9c1-1.5,6.9-0.6,9.4,4.9c1.7,3.6,8.8-2.6,9.2-2.4
			c6.6,3.7,7.8,11,14.7,6.9c6.5-3.9,2.7,3.5,4.7,8c1.4,3.2-5.3,5.9-2.6,13.1"/>
		<path id="a-115" class="st2" d="M129.9,133.9c-1.1-1.1-2.5,0.7-3.1,3.6c-0.8,3.9-1.2,5.4,1.2,5.4c2.9,0,3-2.1,2.9-3.9
			C130.6,136.2,131.4,135.1,129.9,133.9z"/>
		<path id="a-114" class="st2" d="M130.1,131.3c-4.1-0.7-6.5,1.8-6.5,5c0,2.8-0.8,8.5,1.3,9.6c2.5,1.4,7-0.7,8-2.2
			C136.4,138.1,133.6,131.3,130.1,131.3z"/>
		<path id="a-113" class="st2" d="M116.9,121.5c0.9-0.7-1.3-3.5-3.2-4.3c-2.6-1.1-2.5-0.5-2.9,0.5s0.7,2,1.9,2.4
			C113.7,120.4,116.2,121.9,116.9,121.5z"/>
		<path id="a-112" class="st2" d="M109.7,121.6c2.9,1,7.1,3.6,9.6,1.9c3.3-2.2-1.6-6.4-3.3-8.1c-2-2-7.6,0.1-9.1,1.2
			C105.8,117.7,107.2,120.6,109.7,121.6z"/>
		<path id="a-111" class="st2" d="M106.3,124c2.4,1.2,15.5,4.7,17.7,2.9c6.6-4.2-4.5-6.5-3.1-13c1-4.5-5.8-2.4-10.1-1.3
			c-8,2-9.2-1.5-10.1,1.2C100,115.9,103.8,122.8,106.3,124z"/>
		<path id="a-110" class="st2" d="M26.2,69.3c3-0.5,4.9,1.1,7-0.3s4.1-3.8,4.7-3.7c1.7,0.4,1.3,6.4,1.2,13.8
			c-0.1,6.1,11.3,9.2,16.4,9.5c8.9,0.6,10-2.5,15.5-1.2c9.3,2.2,14.7,9.8,21.7,21.1c2.2,3.5,6.8-2.6,20.2-1.8
			c8.1,0.5,9.3,0.1,11.3,1.6c6.2,4.2,3.8,12.9,11,17.2c2.6,1.6,6.8,2.6,7.1,4.5c0.3,2.2-2.9,3-3,5.8c-0.1,3,4.5,3.8,5.4,4.3
			c6.6,3.7,7.9,0.6,15.6,3.2c6.4,2.1,8.1,6.5,12.1,5.5c3.4-0.9,4.3-4.5,5.7-4.1c2.7,0.8,2.5,11.4,4.8,20.1c1.2,4.5,5.6,9.2,12.5,6.1
			c8.8-4,4.5,0.7,5.1,1.8"/>
		<path id="a-109" class="st2" d="M27.5,64.8c7.8,0.8,12.8-7.3,9.9-11.9"/>
		<path id="a-108" class="st2" d="M28.1,61.2c5.5-0.8,7.3-4.8,6.9-7.8"/>
		<path id="a-107" class="st2" d="M157.6,125.6c-0.6-1-1.7-0.4-2.7,1.4c-1.4,2.5-0.8,2.4,0.2,3c1.1,0.6,2.1-0.5,2.6-1.7
			C158,127.5,158,126.5,157.6,125.6z"/>
		<path id="a-106" class="st2" d="M159.7,132.8c-2.4,3.7-15.1-1.8-15.6,1.7c-0.6,3.8,10.2,3.1,14.5,4.4c2.6,0.9,14.3,6.3,14.7,3.3
			c0.5-4.2-8.2-3.4-7.2-9.5c0.2-1.2,0.7-20.4-0.9-20.6C162.7,111.8,163.1,127.8,159.7,132.8z"/>
		<path id="a-105" class="st2" d="M42.6,50.5c0,0.1-0.8,23.2,2.7,27.5c3,3.6,11.2,5.5,20.9,3.5c11.1-2.2,18.8,7.8,27.6,17.5
			c4.2,4.6,15.8,0.7,24.4-0.2c5.2-0.5,2.8,3.6,9.5,4.5c6,0.8,5.1,9.1,7.2,11.7c2.4,2.8,6.6,13.6,12.3,12c6.9-2,7.4-7.9,9.8-6.6
			c4,2.3,6-21.2,8.8-18.6c2.7,2.5,2.1,18.2,4.5,26.2c5.4,18.4,10.8,5.6,11.9,11c1.6,7.2,1.9,25.8,9,29.7c2.6,1.4,17.6-10.8,12.3,2.7
			"/>
		<path id="a-104" class="st2" d="M128.3,92.5c-1.1-0.2-1.4,1.1-0.6,3c1.1,2.6,1.4,2.1,2.4,1.7c1.2-0.5,0.9-1.9,0.3-3.1
			C129.9,93.3,129.2,92.7,128.3,92.5z"/>
		<path id="a-103" class="st2" d="M127.4,89.7c-2.4-0.4-3,2.3-1.2,6.5c2.4,5.6,3.1,4.5,5.3,3.6s1.5-3.9,0.6-6.5
			C131.1,91.3,129.4,90,127.4,89.7z"/>
		<path id="a-102" class="st2" d="M148,116.3c1.4,0.5,2.7-1.9,2.2-4.7c-0.7-3.7-1.3-3.1-2.8-2.9c-1.7,0.3-1.7,2.2-1.2,3.9
			C146.7,114,147.1,115.8,148,116.3z"/>
		<path id="a-101" class="st2" d="M145.8,100.9c1.5,0.3,1.9-2.3,1-5.1c-1.3-3.8-1.3-4.9-3.4-3.7c-2.5,1.5-1.2,4.6-0.4,6.2
			C143.6,99.6,144.6,100.5,145.8,100.9z"/>
		<path id="a-100" class="st2" d="M148.5,104.6c1-2.9,1.2-5.9,0.7-8.9c-0.6-2.7,0.2-9.1-2.2-9c-2.9,0.1-6.8,3.3-7.3,5.1
			C137.3,99.2,146.1,107.5,148.5,104.6z"/>
		<path id="a-99" class="st2" d="M157.6,90c-1.1-0.7-2.9,7.3-2.8,9.8c0.1,3.3,0.9,10.7,2.2,10.7c1.5,0,3.6-3.6,3.2-10.7
			C160.2,98.5,160.6,90,157.6,90z"/>
		<path id="a-98" class="st2" d="M150.7,118.6c1.9-1.8,2.5-16.2,2.3-20.2c0-3.7,1.9-15.7-3.1-16c-4.6-0.3-11.6,1.7-13.3,5.8
			c-2.2,5-2,10.8,0.7,15.7C138.3,105.9,146.1,122.9,150.7,118.6z"/>
		<path id="a-97" class="st2" d="M143.5,76.5c-0.7,0.8,0.9,1.5,2.9,1.9c2.8,0.4,6.3,1.8,6.5,0.7c0.2-1.2-0.2-3-6.2-3.8
			C145.5,75.3,144.4,75.7,143.5,76.5z"/>
		<path id="a-96" class="st2" d="M46.3,47.5c0.2,0.9,1,5.2,1.8,18.7c0.3,5.9,10.5,10.9,23.9,7.7c11.3-2.7,22.4,15.2,26.2,17.3
			c9.4,5.3,22.6-1.5,24.3-2.3c12.4-5.5,16.9-14.7,19.8-17c2.5-2,6.2,2.6,10.7,1.3c1.7-0.5,2.5-1.2,3.4-0.8c1.8,0.9,0.5,4.6,1.8,9.9
			c0.4,1.5,1.9,7.8,5.7,8.9c2.3,0.6,3.4,0.3,4.9,0.8c3.4,1.3,2,9.9,3.4,26.8c0.5,5.6,2,10.5,4.4,12.3c3.7,2.7,7.1-2.4,9.9,0.3
			c2.7,2.5,0,6.5,1,15.1c0.6,4.4,1.4,11.5,6.3,14.1c4.5,2.5,11.3-2.7,14.9-0.5c2.5,1.5,0,6.5-0.3,9.6"/>
		<path id="a-95" class="st2" d="M140.6,64.1c-1.1-0.2-1.4,1.1-0.6,3c1.1,2.6,1.4,2.1,2.5,1.7s0.9-1.9,0.3-3
			C142.3,64.9,141.5,64.3,140.6,64.1z"/>
		<path id="a-94" class="st2" d="M114,75.4c0,1.6,2.7,1.3,5.2-0.3c3.3-2.2,4.4-2.5,2.7-4.2c-2-2-4.7,0-6.1,1.2
			C114.7,72.9,114.1,74.1,114,75.4z"/>
		<path id="a-93" class="st2" d="M112,80.2c2.4,1.2,4.1,0.8,6.3-1.1c6.6-4.2,6.9-2.5,8.3-9c1-4.5-5.8-2.4-10.1-1.3
			c-8,2-7.2,2-8.1,4.6C107.6,75.5,109.4,78.9,112,80.2z"/>
		<path id="a-92" class="st2" d="M108.2,83c3.9,2,8.6,2,12.3-1.1c7.1-4.5,9-5.1,11.2-12.7c2-7.3-7.1-6.1-14.1-4.3
			c-13.2,3.4-11.9,5.3-13.4,9.8C102.9,78.1,104,80.8,108.2,83z"/>
		<path id="a-91" class="st2" d="M90.6,66.1c-1.5,0.5-1.1,2.2,1.2,4.1c3,2.6,3.1,1.7,4.1,0.6c1.2-1.3,0-2.9-1.6-4
			C93.2,66.1,91.9,65.8,90.6,66.1z"/>
		<path id="a-90" class="st2" d="M86.7,69.1c-0.1,2.7,2,2.1,3.7,4.4c2,2.9,4.7,3.3,7.3,1.3c3.4-2.6,4.3-4,1.3-7.2
			c-3.5-3.9-4.6-4.3-7.4-4C88.9,64.1,86.9,66.3,86.7,69.1z"/>
		<path id="a-89" class="st2" d="M104.7,65.5c-5.4-1.3-8.9-8.4-13-5.5c-5.1,3.7-12.6,2.7-12.3,6.8c0.1,1.4,2.4,4.7,9.3,9.9
			c6.3,4.8,11.8,1.4,11.3,6.1c-0.2,2.1,4.7,5.8,12.4,4.7c7.9-1.1,23.7-8.3,22-13.6c-0.7-2.2,4.4-8.6,2.2-12c-2.3-3.6-7.8-0.9-12-3.1
			C114.7,53.6,111.7,67.2,104.7,65.5z"/>
		<path id="a-88" class="st2" d="M49.8,43.1c8.3,3.1,15-6.5,13.3-9.8"/>
		<path id="a-87" class="st2" d="M51,36.2c3.4,2.3,8.2-1.7,7.8-4.7"/>
		<path id="a-86" class="st2" d="M64.3,27.6c3.1,2,8.2-0.4,8.5-2.9"/>
		<path id="a-85" class="st2" d="M76.2,27.5c4.1,2,11.7,1.1,15.9-2.9"/>
		<path id="a-84" class="st2" d="M77.6,22.4c3.4,2.3,7.8-0.3,9.5-2.1"/>
		<path id="a-83" class="st2" d="M61.3,55.5c3.4,2.3,20.9-2,23.7-10.8"/>
		<path id="a-82" class="st2" d="M60.5,48.7c1.7-0.1,3.3-1,4.4-2.3"/>
		<path id="a-81" class="st2" d="M69,44.4c3.4,2.3,11.7-0.7,11.3-3.7"/>
		<path id="a-80" class="st3" d="M61,63.7c1.5-1.2-1.7-15.5-0.7-18.6s6.2,4.8,7.3,1.6c1.1-3.4,2.5-6.2,4.4-7.5
			c5.5-3.5,11.7,4.7,16.6,8.2"/>
		<path id="a-79" class="st2" d="M108.7,55.3c3.4,2.3,15-1.1,15.6-6.2"/>
		<path id="a-78" class="st2" d="M110.3,50.4c3.4,2.3,8.3-1.3,10-3.1"/>
		<path id="a-77" class="st3" d="M104.9,60c5.2-5,5.4-14.3,8.8-15.2s8.4,4.9,18.1,6.5"/>
		<path id="a-76" class="st2" d="M88.6,49c3.4,2.3,15.8-1.8,16.6-5.5"/>
		<path id="a-75" class="st2" d="M90.7,43.2c3.4,2.3,8.3-1.3,10-3.1"/>
		<path id="a-74" class="st3" d="M84.7,53.5c5.7-4.5,4.8-14.5,10.5-16.2c3.3-1,7.6,6.5,16.2,9.7"/>
		<path id="a-73" class="st2" d="M84.5,34.5c3.4,2.3,12.1-0.4,11.7-3.4"/>
		<path id="a-72" class="st3" d="M81.5,37.8c2.4-0.8,3.3-6.8,8.7-7.9c3.9-0.9,6.2,1.7,12.2,3.6"/>
		<path id="a-71" class="st2" d="M105,37.9c5.9,1.6,22.6,3.3,24.9-0.5"/>
		<path id="a-70" class="st2" d="M107.3,33.4c5.9,1.6,17.3,3.5,18.9,1"/>
		<path id="a-69" class="st3" d="M101.5,40.9c5.6-2.2,4.3-11.4,11-11c16.6,0.9,11.1,3.9,20,9.4"/>
		<path id="a-68" class="st2" d="M101,25c7.5,2.2,17.1,3.7,20.9-1.9"/>
		<path id="a-67" class="st2" d="M102.9,22.2c6.6,0,12.4,4.9,16.4-0.2"/>
		<path id="a-66" class="st2" d="M105.6,18.5c3.9-0.7,8,3.8,10.6,0.7"/>
		<path id="a-65" class="st2" d="M122.2,16.5c2.6,1.6,7.4,1.9,10.2,0.4"/>
		<path id="a-64" class="st2" d="M123.2,23.2c-0.4,1.2-0.1,3.4,0.8,3.9c7.3,3.6,2.2,2.4,7.4,6.3c10.4,7.9,1.6,17.4,6.5,22
			c5.3,4.9,8,12,12.6,13.8c3.8,1.5,5.9-1.4,8.4,0.1c3.4,2.1,1.7,7.4,3.5,14c2.4,8.7,6.3-0.9,10.3,6.9c6.8,13.2,1.8,31.4,7.4,35
			c4.2,2.6,7.8,0.5,11.6,3.3c4.7,3.5-0.8,14.3,2.7,22.6c1.9,4.4,9.9,7.6,15.9,1.6c4.1-4.1,6.3,7,3.6,17"/>
		<path id="a-63" class="st2" d="M125,23.6c-0.2,1.8,6.1,3.6,10.4,7.2c4.5,3.9,5.5,19.9,6.7,21.8c2.3,3.7,4.6,6.7,7.1,8.3
			c2.7,1.7,5.4,3.2,7.3,2.8c4.1-0.9,6.9-0.1,7.4,1.3c0.8,2.5,1.3,5.1,1.5,7.7c0.7,8.2,8.3,7.2,10.1,10.2c3.6,6.2,1.5,11.2,4.1,13.3
			c3.2,2.5,4.7,9.7,4,13.3c-3.1,16.2,9.1,11.4,11.7,14.2c2.5,2.6,1.6,12.9,1.6,14.6c-0.1,7.7,1.9,11.8,4.7,12.7
			c5.8,2.1,9.7-6.6,10.8-11.5c0.2-0.9,0.4-1.9,0.5-2.8c0.4-3.8,1.4-7.9,5-0.1"/>
		<path id="a-62" class="st2" d="M208.2,129.2c-1.2-1.1-2.8-2.2-3.3,0.6c-0.7,3.9-2,12,0.4,11.9c2.9-0.1,4-7.1,4.1-9
			C209.5,131.5,209.1,130.2,208.2,129.2z"/>
		<path id="a-61" class="st2" d="M203,126.6c-2.1,1.6-2.9,7-2.2,9.9c0.8,7.7,0.1,10.4,3.1,10.7c3.6,0.3,5.8-4.6,6.8-8.9
			c1.8-8.1,0.6-9.1-1.4-11.1C207.7,125.4,204.9,125.1,203,126.6z"/>
		<path id="a-60" class="st2" d="M193,102.1c-0.9-0.8-2.2-1.7-2.6,0.5c-0.5,3-1.5,9.2,0.3,9.2c2.2-0.1,3.1-5.5,3.2-6.9
			C194,103.8,193.7,102.8,193,102.1z"/>
		<path id="a-59" class="st2" d="M191.8,98.4c-2.7-0.1-5.7,6.1-4.4,11.9c0.7,3.5,1.8,6.9,4,6.6c3.1-0.4,4.6-9.8,4.5-14.4
			C195.8,100.6,193.5,98.4,191.8,98.4z"/>
		<path id="a-58" class="st2" d="M149.7,44.4c-1.6,0-1.3,2.7,0.3,5.2c2.2,3.3,4.4,7.7,6.1,6c2-2-1.9-7.9-3.1-9.4
			C152.3,45.2,151,44.5,149.7,44.4z"/>
		<path id="a-57-2" class="st2" d="M143.6,45.3c-0.4,2.6,2.2,6.9,4.8,8.4c6.1,4.8,2.8,6.5,9.4,5.8c4.5-0.5,2.2-7.1-0.2-10.8
			c-4.5-6.9-7-7.6-9.8-7.6C145.4,41.1,144,42.5,143.6,45.3z"/>
		<path id="a-57-1" class="st2" d="M220.9,136.8c0.1,0.4-2-9.9-14.8-14.4c-5.8-2-4.9,1.5-8.8-1.3c-2.4-1.7-0.8-11.6,0.8-16.7
			c0.6-1.8,0.8-7.5-1-9.3c-2.4-2.3-7.3,0.5-11.2,2.9c-4.3,2.6-3.7-13.5-4.7-15.3c-1.8-3.4-8.1-7-11.9-12.4c-2-2.8,5.1-2.8-2.9-10.2
			c-1.4-1.3-0.9-6.6-3.2-9.5c-4.4-5.5-6.6-13-13.6-13.9"/>
		<path id="a-56" class="st2" d="M197.6,68.6c-3.5,0.1-5.3,2.2-4.2,4.1c2.2,3.8,3.5,2,7.5,4.7c1.5,1,5.2,0.1,6.2-0.3"/>
		<path id="a-55" class="st2" d="M205.1,74.3c1.6-0.4,1.1-2.6-0.6-4.2c-2.5-2.2-4.9-1.6-6.1-0.7c-1.5,1.2-0.4,2.7,0.6,3.3
			C199.7,73.2,203.6,74.8,205.1,74.3z"/>
		<path id="a-54" class="st2" d="M181.9,55.8c-2.1,2.7,0.7,4.1,0.8,7.1c0.1,4.3,1.5,4.2,4.6,5.8s4.3,7.4,4.6,8.7
			c1,4.2,5,2.6,7.6,4.8c4.1,3.6,7.2,1.7,8.2,0.4"/>
		<path id="a-53" class="st2" d="M190.5,59.2c-1.1-4-2.8-6-4.8-5c-0.7,0.4-0.6,1.7,1.2,5.5C190.1,66,191.5,62.6,190.5,59.2z"/>
		<path id="a-52" class="st2" d="M219,136.8c1,8.4,7.6,22.1,8.7,24.9"/>
		<path id="a-51" class="st2" d="M223.6,137.8c1,8.4,5.5,18.5,6.7,21.2"/>
		<path id="a-50" class="st4" d="M215.1,135c7.1,4,13,1.4,14.2,6.7c2.1,9.2,4.5,11.4,3.9,13.8c-0.4,1.6-4.3,5.1-8.6,9.2"/>
		<path id="a-49" class="st4" d="M222.4,121c2.9,0.4,12.8-0.1,14.9,4.9c2.7,6.5-2.7,11.1-7.1,19.5"/>
		<path id="a-48" class="st2" d="M229.6,121.6c-1.5,7.7-0.4,12.9,2.4,19.9"/>
		<path id="a-47" class="st2" d="M233.8,123c-1.8,4.8,0.3,10.9,2.1,12.6"/>
		<path id="a-46" class="st2" d="M228.5,121.6c-1-2.7-1.4-5.3-4.6-9.5c-1.7-2.9-4.1,0.5-6.1,6.1c-2.5,7.1-20.4-0.4-17.1-10.2
			c2.1-6.2,0.3-10.3,0.3-15.8c0-5.3-6.7-3.1-8.1-2c-11.6,9.5-4.1-6.9-8.3-11.2c-4.9-4.4-10.1-6.7-8.9-9.9c2.1-5.5-6.5-8.1-6.4-12
			c0-1.9,3.4-2.7,7.6,1.3"/>
		<path id="a-45" class="st2" d="M228.5,106.8c2.1,2.7,2.6,7.8,4.7,10.6"/>
		<path id="a-44" class="st2" d="M234.1,105.9c2.7,3.1-1.2,5,1.5,8.1"/>
		<path id="a-43" class="st2" d="M210.6,84.7c-4.3,14.4-3.9,21.8-1.5,27.6c1.1,2.6,6.1,7.7,8,2.4c5.2-14,8.7-9.4,8.8-10.2"/>
		<path id="a-42" class="st2" d="M213.2,84c-1,0.3,0.5,3.3-0.2,6.5c-0.3,3.7-4.1,16,1.1,20.2c3.6,2.9,5.8-7,7.7-11
			c1.4-2.2,3.2,0,3.7,0.5"/>
		<path id="a-41" class="st2" d="M219.1,92.1c-1.2-1-2.8-2.2-3.3,0.7c-0.7,3.9-2,12,0.4,11.9c2.9-0.1,4-7.1,4.2-9
			C220.5,94.3,220,93,219.1,92.1z"/>
		<path id="a-40" class="st2" d="M206.7,74.3c1.9,1.5,5.5,2.2,5.6,1.8"/>
		<path id="a-39" class="st2" d="M191.2,63c1.4,1.7,4.9,3.6,6.4,5.6"/>
		<path id="a-38" class="st2" d="M200.1,62.6c-1.4,0.7,1.7,3.2,2.1,6.2"/>
		<path id="a-37" class="st2" d="M203.7,60c-1.9,1,3,3.9,4.7,8.7c1,2.7,5.7,2.3,6,1.4"/>
		<path id="a-36" class="st2" d="M175.4,59.5c2.5-1.6,10.6-6.3,12-5.5c2.7,1.6,3.5,5.5,4.3,12.9c0.4,4.1,9-0.5,12.7,3.2
			c1.6,1.7,2,2.1,2.9,7.5c0.3,2.6,0.3,5.3,0.1,7.9c-0.1,0.9-0.1,1.9-0.4,3.4"/>
		<path id="a-35" class="st2" d="M158.1,34.6c0.1,0,0,0.2,0,0.3c-0.4,2.1,6.6,6.5,10.3,13c3.5,6.1,11.1,5.7,11.4,8.9"/>
		<path id="a-34" class="st2" d="M162.4,32.8c-3.4,0.8,12,11.6,11.7,9.1"/>
		<path id="a-33" class="st2" d="M179.3,48.2c2.8,0.7,3.9,4.4,5.5,6.1"/>
		<path id="a-32" class="st2" d="M183.8,44.9c-1.6,1.1,8.1,2.9,8,6c-0.1,2.9,3.7,4,4,3"/>
		<path id="a-31" class="st2" d="M191.1,39.5c-0.2,1,3.1,2,3.4,4.6c0.4,3.1,3.6,3.2,3.7,2.8"/>
		<path id="a-30" class="st2" d="M233.2,140c2.7,5.7,3.5,14.2,0.7,27.2"/>
		<path id="a-29" class="st2" d="M240.4,152.4c-1.7,1.2-4.6,7.6-1.4,11.2"/>
		<path id="a-28" class="st2" d="M244,155.9c-0.8,0.4-2.5,3.7-0.2,6.7"/>
		<path id="a-27" class="st2" d="M236.6,134.7c1.2,5.2,2,8.6,3.9,12.4"/>
		<path id="a-26" class="st2" d="M233,118.4c0.3,1.5,1.9,2.3,1.4,4.6"/>
		<path id="a-25" class="st2" d="M242.9,125.8c2.1,3.5-0.6,9.8,3.3,12.5"/>
		<path id="a-24" class="st2" d="M250.3,125.9c0.1,1.7-2.7,4.4,1.6,7.3"/>
		<path id="a-23" class="st2" d="M240.5,103.8c-2.6,2.7,0,13.8-1,16.5"/>
		<path id="a-22" class="st2" d="M244.9,104.9c-2.6,2.7-0.3,6.4,0.1,9.8"/>
		<path id="a-21" class="st2" d="M226.6,94.4c1.6,2.3,2.8,6.5,4,11.7"/>
		<path id="a-20" class="st2" d="M232.4,87.3c-2.3,5.5,5.3,5.5,6.9,11.1"/>
		<path id="a-19" class="st2" d="M240.7,85.4c-2,3.8,3.6,3.8,3.2,6.3"/>
		<path id="a-18" class="st2" d="M210.9,80.1c2.7,1.6,2.8,1.2,4,3.2"/>
		<path id="a-17-2" class="st2" d="M216.6,63.9c4.9,8.1-0.9,12.5,6.5,15.9"/>
		<path id="a-17-1" class="st2" d="M224.2,61.4c-0.6,0.2,5,1.9,4.3,5.9c-0.6,3.5,1.8,6.7,3.3,5"/>
		<path id="a-16" class="st2" d="M233.4,58c-0.8,0.3,1.3,1.9,0.9,4.4c-0.3,1.9,3.7,2.2,4.7,1.8"/>
		<path id="a-15" class="st3" d="M141.2,38.3c16.3-1.9,28.8-10.4,32.1-5.5c1.3,1.9-0.8,20.3,6.3,15.4c10.4-7.3,17.5-15.1,19.8-12
			c3.9,5.4-6.4,15.1-3.5,26.5c0.6,2.4,4.5-0.6,5.7-1.2c5.6-2.9,12.9-8.9,15.6-4.4c2.5,4.2-10.1,28.8-6,27.7c5.2-1.3,13.9-7.3,18.6-5
			c8,3.8-8.3,14.3-3,26c1.3,2.8,12-3,12.3,2.6c0.2,4.4-5.9,4-6.5,13.8"/>
		<path id="a-14" class="st2" d="M127.1,23.2c22.5,11.1,19.8-3,27.6,11.9"/>
		<path id="a-13" class="st1" d="M195.6,56.8c1.9,1.4,3.5,3.3,4.4,5.5"/>
		<path id="a-12" class="st2" d="M174.1,40.2c2,1.4,4.6,4.6,7.2,6.7"/>
		<path id="a-11" class="st2" d="M134.8,19.1c-0.2,0.1,12.3,0.9,28,13.6"/>
		<path id="a-10" class="st2" d="M141.1,13.9c-1.1,1.1,13.9,2.4,11.4,0.8"/>
		<path id="a-9" class="st2" d="M197.7,48.7c7.4,5.1,14.1,7.5,14.6,6.1"/>
		<path id="a-8" class="st2" d="M163.5,21.4c-0.5,0.2,12.5,3.8,19.6,13.5c1.6,2.2,3.4,4.3,5.3,6.2"/>
		<path id="a-7" class="st2" d="M200.3,40.2c1.4,1.1,2.8,2.4,4,3.7c3.9,4.6,9.1,6.2,9.9,4.2"/>
		<path id="a-6" class="st2" d="M170.5,17.6c-0.2,0.1,11.1,3.8,16.4,11.2c1.8,2.6,5.5,5.5,8.1,7.5"/>
		<path id="a-5" class="st2" d="M176.4,13.8c-1.5,0.8,7.6,6.5,6.7,3.6"/>
		<path id="a-4" class="st2" d="M211.9,33.7c-1.6,0.6,5.1,8.8,5.6,4"/>
		<path id="a-3" class="st2" d="M192.7,20.1c-0.5,0.2,7.3,1.3,7.4,7.1c0.1,6,8.6,8.7,8.8,6.2"/>
		<path id="a-2" class="st2" d="M198.4,16.1c-0.4,0.3,6.1-0.7,6.6,3.2c0.7,5,4.7,10.7,5.5,8.2"/>
		<path id="a-1" class="st2" d="M206.4,8.3c1.3-1.8,4.3,1.4,4.1,5.1c-0.3,4,1.9,8.3,2.8,5.8"/>
	</g>
	<g id="Bottom_sphere_lines">
		<path id="b-69" class="st2" d="M117.3,226.5c-4.9,0.7-7.2-4.1-3.4-5.1c2.8-0.8,13.4,1.4,23.4-1.4c11.5-3.1,12.8,4.3,24.2,3.1
			c22.6-2.2,31-3.3,32.1,4.5c0.4,2.7-2.4,5-5.5,5"/>
		<path id="b-68" class="st2" d="M119.9,230.6c16.4-6.9,61.5-1.9,68.4,0.7"/>
		<path id="b-67" class="st2" d="M173.4,239.8c1.7-4.1,9.7-5.4,12.6-3.1"/>
		<path id="b-66" class="st2" d="M175,242.3c2.4-2.2,5.3-2.2,8.2,0"/>
		<path id="b-65" class="st2" d="M163.6,238.6c2.4-1.5,4-1.2,5.9,0.5"/>
		<path id="b-64" class="st2" d="M124,238.4c7.1-5.1,33.1-7.8,36.6,0.2"/>
		<path id="b-63" class="st2" d="M144.3,243.6c3.9-2.5,8.9-3.6,13.7,0.6"/>
		<path id="b-62" class="st2" d="M146.6,248.9c2.5-2.7,6.6-3.2,9.6-1"/>
		<path id="b-61" class="st2" d="M231,170.1c3.4,3.9-1.2,4.3,1.9,7.4c2.9,2.9-3.3,3.3-1.3,6.5c0.9,1.4,2.3,2.1,3.5,3.9"/>
		<path id="b-60" class="st2" d="M224.4,179.7c-2.2,2.4-1.8,8.5,0,10.3"/>
		<path id="b-59" class="st2" d="M219.7,177c-2,6.9-3.3,7.9-0.2,15.3"/>
		<path id="b-58" class="st4" d="M215.2,174.2c2.4,1.8,13.4,6.3,13.6,10.5c0.1,4.7-6.2,5.4-14,10.7"/>
		<path id="b-57" class="st2" d="M206.4,169.6c-0.5,5.1-6.6,10.5-0.7,12.1c3.9,1-1.9,7.8,1.7,10.1c2.9,2.5,5.3,5.6,6.9,9.1
			c1.4,3.3,8.1,4.1,8.6,4.9"/>
		<path id="b-56" class="st2" d="M220.5,212.9c-1.4-0.6-3-0.4-4.3,0.4c-2,1.1-3.2-2.1-3.6-3.5c-1.2-3.4-4.3-1.6-4.7-2.5
			c-1.8-3.8-2.8-8.4-5-9.5c-5.5-2.9-4.9-0.8-9.1-3.4c-3.4-2.1-1.1-6.2-2.9-7.4c-6.6-4.5,4.2-3.4,3.8-10.6"/>
		<path id="b-55" class="st2" d="M216.7,221.8c-1.7-0.8-3.1-2.2-3.8-4c-0.7-1.9-4.7-1.2-6.1-1.4c-2.5-0.4-5.6-8.2-5.4-9.1
			c1.6-5.4,0.5-5.2-1.7-6.4c-5.5-2.9-6.3,0.8-10.6-1.8c-3.4-2.1-1.5-6.1-3.3-7.3c-6.6-4.5-1.8-10.7-2.2-17.9"/>
		<path id="b-54" class="st2" d="M146.2,177.3c-0.6-1-2.8-0.9-3.8,0.9c-1.4,2.5,0.3,2.9,1.3,3.5c1.1,0.6,5.9,2.6,6.4,1.4
			C150.5,182,146.5,178,146.2,177.3z"/>
		<path id="b-53" class="st2" d="M157.4,189.3c-1.1,0-1.3,1.2-0.3,3.1c1.4,2.5,1.6,1.9,2.6,1.4s0.7-2,0-3.1
			C159.2,189.9,158.4,189.4,157.4,189.3z"/>
		<path id="b-52" class="st2" d="M155.4,185.5c-1-0.5-1.8,3.5-1.7,5.6c0.2,2.8,4.5,6.1,5.6,6c1.3-0.1,4.5-1.7,4.3-3
			c-0.7-1.9-1.7-3.7-3-5.2C159.1,187.5,157.4,186.3,155.4,185.5z"/>
		<path id="b-51" class="st2" d="M172.3,176.5c1.1,2.1,1.8,4.4,2.2,6.8c0.4,2.2-1.7,3.1-4.7,6.1c-1.4,1.4-0.8,4.1-0.5,4.8
			c0.5,0.9,0.5,1.9,0.1,2.9c-1.3,2.5-4.9,4.5-5.9,4.4c-3.4-0.3-6.2,0-8.4-1.2c-5.5-2.9-7-2.1-6.5-7c0.4-3.1-5.2-6.2-7-7.4
			c-6.6-4.5-1.8-10.7-2.2-17.9"/>
		<path id="b-50" class="st2" d="M139.3,196.2c-0.6-1-5,0.7-6.1,2.5c-1.4,2.5,3.6,4.4,4.5,4.9s6.7,1.8,7.2,0.6
			C145.4,203.2,139.6,196.8,139.3,196.2z"/>
		<path id="b-49" class="st2" d="M177.1,173.6c0,0,2.3,9.6,1.6,11c-1.1,2-2.5,4.6-3,5.6c-0.9,1.8-1.7,3.9-1.3,4.7
			c0.6,1.1,0.8,2.4,0.5,3.6c-0.4,1.3-1.9,2.3-3.6,3.6c-3.3,2.5-11.8,1.6-14.3,1.4c-5.9-0.6-10.4-2.2-11.2-3.3
			c-1.8-2.6-3.7-7.1-5-7.5c-3.5-1-6.8,2-7.8,2.4c-2.3,0.9-4.9,6.6-3.5,8.7c0.9,1.4,2.5,4.5,23.7,4.9c6.5,0.1,12.4-0.6,22.7-0.6
			c16.5,0.1,19.5,1,21.5,3.3c2.5,2.9,1.7,5.6,5.9,11c1.4,1.8,3.1,3.5,4.9,4.9"/>
		<path id="b-48" class="st2" d="M95.9,171.3c-0.6-1-2.8-0.9-3.8,0.9c-1.4,2.5,0.4,2.8,1.3,3.5c2.8,2.3,7.6,4,4.5-1.3
			C97.3,173.4,96.2,172,95.9,171.3z"/>
		<path id="b-47" class="st2" d="M89.2,169.6c-1.5,0.5-1,4.8,1.3,6.6c3.8,3,9,5.8,10.2,3.7c1.4-2.5,0.8-9.1-0.8-9.9
			C97.4,168.8,91,168.8,89.2,169.6z"/>
		<path id="b-46" class="st2" d="M108.3,187.4c3.7,0.6,2.2-3.2,3.5-4.8c1.2-1.1,1.3-3,0.1-4.2c-0.1-0.1-0.3-0.3-0.4-0.4
			c-1-0.8-4.8-3.4-5.5-2.4c-0.3,0.5-4.9,8.4-2.4,10.9C105.5,188.4,105.4,188.2,108.3,187.4z"/>
		<path id="b-45" class="st2" d="M82.7,167.1c-2.8,5.9,2.7,5.5-1.3,9.9c-0.4,0.5-4.4,0.9,1.8,6.3c5.6,4.9,6.9-2.4,9.5-1.8
			c1.8,0.4,4,9.8,5.2,13.5s3.4-3,5.1-2.4s2.1,5,4.4,3.9c3.1-1.2,5.2-4.1,5.5-7.4c0.6-8.4,9.2,1.8,11.7,0.7c1.5-0.7,3.8-8.3,0.5-13.3
			"/>
		<path id="b-44" class="st2" d="M77.8,167.4c-3.7,7.8,1.8,7.4-2.5,14.1c-1.8,2.9-0.8,4.7,6.2,6.3c4.6,1,6.4-0.3,9.7,0.5
			c1.8,0.4,0.8,8.7,1.6,12.8c1.4,6.9,9.1-0.4,11.9,0.6c4.7,1.7,11.2-14.3,15.9-6.1c3.3,5.9,7.1-1.6,10.4-3.1
			c1.2-0.6,6.9-3.8,2.3-8.4c-2.7-2.7-1.6-8.3-3.9-12.5"/>
		<path id="b-43" class="st2" d="M61.9,176.8c1.3-3.4-1.1-4.5-1.7-6.5c-0.8-2.7-2.3-1.8-3.3-1.5c-1.2,0.3-5.1,2.1-4.8,3.4
			C52.5,174.4,60.6,177.2,61.9,176.8z"/>
		<path id="b-42" class="st2" d="M66.7,176.1c-0.5-1.9-6.8-8.7-7.2-9.9c-0.5-1.6-7.5,1.7-8.1,2c-2.2,1-1.3,6-1,6.8
			c0.1,0.4-0.5,6.4,5.6,3.1c1.2-0.7,3.1,2.7,4.4,2.1C61.1,180,68.2,179.4,66.7,176.1z"/>
		<path id="b-41" class="st2" d="M42.7,171.9c1.8-0.9-0.1-2.1,1-4.3c1-2,2.9-3,2.7-3.5c-0.5-1.6-3.6,0.2-4.3,0.2s-2.3,1.8-2.1,4.1
			C40.1,170.1,40.2,172.9,42.7,171.9z"/>
		<path id="b-40" class="st2" d="M33,166.7c-0.5-1.9-0.9-2.7-1.3-3.9c-0.5-1.6-5.8-3.6-6.4-3.3c-2.2,1,0.4,5.1,0.7,5.9
			c1,2.1,2.4,4,4,5.7c1.2,0.9,2.9,1.1,4.3,0.5C35,171.2,34.5,170,33,166.7z"/>
		<path id="b-39" class="st2" d="M21.1,159.4c-1.1,1.7,1.6,5.8,2.9,7.6c2.4,5.2,7.6,8.6,13.3,8.5c3.5-0.2-2.3-7.9-2.8-11.2
			c-1-6.3-3.4-5.4-5.4-6.3C27.5,157.2,22.3,157.5,21.1,159.4z"/>
		<path id="b-38" class="st2" d="M51.6,156.6c0.1,1.4,5.5,6.3,1.4,7.4c-2.9,0.8-10.3,6.9-6.9,10.3c1.7,1.7-1.2,7.6-6.1,5.7
			c-5.6-2.1-12.8-1.6-14.5-3c-5.3-4.7-5.7-11.9-8.3-11.1c-1.7,0.5-8.1,2.1-5.5-3c2.4-4.6-3.1-4.8-8.6-4.2"/>
		<path id="b-37" class="st2" d="M59,186.2c1.8-0.9-1.3-4-2-4s-3.1-0.6-2.9,1.8C54.2,185.6,56.5,187.2,59,186.2z"/>
		<path id="b-36" class="st2" d="M65.6,164.9c-1.4,3.3,7.7,3.6,5.1,6.5c-3.6,4,3.7,5.7,2.2,8.1c-0.7,1.2-4.1,2-8.5,4.8
			c-1.9,1.2-1.8,6.6-4.7,5.9c-5.3-1.3-8.2-1.1-9.5-4.4c-1.8-4.7-8.5-2.1-14.1-2.7c-4.8-0.5-8.2,1.4-10.3-0.6
			c-5.9-5.7-6.9-5.1-6.5-5.9c1.2-2-3.1-3.3-8.8-3.1c-2.4,0.1-5-7-6.3-6.4"/>
		<path id="b-35" class="st2" d="M9.8,187.2c2.1-0.3,5.5-1,6.9-0.5"/>
		<path id="b-34" class="st2" d="M10.3,192.2c2.1-0.3,4.9-1,6.3-0.4"/>
		<path id="b-33" class="st2" d="M17,183.2c17.4,5.1,25,7.8,39.9,9.8c2.6,0.3,9,6.3,9.5-0.3c0.3-3.6,2.5-4.5,4.8-4.8
			c3.5-0.5,4.2,4.4,8.7,5.7c2.6,0.8,4.8-0.9,7.8,0.1c2.7,0.9-0.5,12,2.3,13.2c12.7,5.2,7.2,0.6,16.3-1.2c9.7-1.8,8.2-5.4,12.9-5.2
			s-1.3,8.9,5.6,9.9c21.5,3,61.6,0.9,69.1,5.7c4.8,3,6.4,11.7,8.1,14.7"/>
		<path id="b-32-a" class="st2" d="M16.7,193.9c4.3-1.6,10.3,1,13,6.5"/>
		<path id="b-32" class="st2" d="M17.2,187.9c33.3,8.8,66.1,16.2,97.4,42.9"/>
		<path id="b-31" class="st2" d="M109.1,234.6c-19.1-15.6-38.9-26.9-77-30.9"/>
		<path id="b-30" class="st2" d="M91.3,236.6c3-1.9,11-1.3,12.1,2.2"/>
		<path id="b-29" class="st2" d="M67.6,228c5.5-5.7,15.9-1.6,18.5,4.3"/>
		<path id="b-28" class="st2" d="M67.8,233.5c3-2,13.1,0,14.3,3.5"/>
		<path id="b-27" class="st2" d="M68.1,238.9c3.4-0.6,8-0.7,9.2,2.8"/>
		<path id="b-26" class="st2" d="M30.9,211.9c9.2-3.6,32.4,3.2,33.5,9.6"/>
		<path id="b-25" class="st2" d="M30.7,217.5c9.2-3.6,29.2,3.1,30.3,6.6"/>
		<path id="b-24" class="st2" d="M42.5,226c3-2,12.3-0.5,13.5,3"/>
		<path id="b-23" class="st2" d="M41.8,232c3-2,7.3-0.9,8.5,2.6"/>
		<path id="b-22-a" class="st2" d="M185.1,239.6c2.9-0.4,4.7-0.8,8.2,0"/>
		<path id="b-22" class="st2" d="M181.8,244.9c2.9-0.4,3.7-0.9,7.2-0.2"/>
		<path id="b-21" class="st2" d="M158.8,242.4c2.9-0.4,12.9,1,16.5,1.8"/>
		<path id="b-20" class="st2" d="M133.4,242.2c2.9-0.4,6,0.3,9.9-0.2"/>
		<path id="b-19-a" class="st2" d="M109.8,234.2c2.9-0.4,8.2,0.5,11.7,1.3"/>
		<path id="b-19" class="st2" d="M101.8,240.4c4.4-1.4,16.8-0.5,23.5,0.7"/>
		<path id="b-18-a" class="st2" d="M83.6,234.7c2.9-0.4,3.8-0.3,7.7,0.1"/>
		<path id="b-18" class="st2" d="M79.1,240.3c2.9-0.4,8,0.5,12.8,0.1"/>
		<path id="b-17-a" class="st2" d="M58,227.3c2.9-0.4,3,1.3,9.4,2.7"/>
		<path id="b-17" class="st2" d="M53.8,231.6c2.9-0.4,7.7,4.4,14.1,5.9"/>
		<path id="b-16-e" class="st2" d="M25.5,203.3c2.1-0.3,4.5,1.3,5.9,1.8"/>
		<path id="b-16-d" class="st2" d="M21.6,206.7c2.9-0.4,3,1.3,9.4,2.7"/>
		<path id="b-16-c" class="st2" d="M20.8,212c2.9-0.4,3,1.3,9.4,2.7"/>
		<path id="b-16-b" class="st2" d="M19.5,217c3.4-0.6,7.9,2.5,7.8,6.5"/>
		<path id="b-16-a" class="st2" d="M18.5,220.7c3.4-0.6,4.6,1.1,5.8,4.7"/>
		<path id="b-16" class="st2" d="M30.5,228.1c2.9-0.4,5.1,0.5,11.5,2"/>
		<path id="b-15" class="st2" d="M157,246.8c4.4-1.4,13.2,1.4,19.3,5.7"/>
		<path id="b-14" class="st2" d="M145.5,248c-24.6-1.6-22,11.7-71.8-2.4"/>
		<path id="b-13" class="st2" d="M68.1,244.4c-6.4-2.1-10.1-3.4-20.8-6.9"/>
		<path id="b-12" class="st2" d="M42.2,236.3c-2.6-1-7.8-3.5-12.3-2.7"/>
		<path id="b-11" class="st2" d="M28.6,238.8c2.5-1.5,4,1.3,3.8,3.5"/>
		<path id="b-10" class="st2" d="M155.4,256.4c-5.7-4.9-21.2-2.1-27.1,5.5"/>
		<path id="b-9" class="st2" d="M150.9,259.8c-5.9-3.3-12.3,0.7-12.9,3.5"/>
		<path id="b-8" class="st2" d="M81.9,259.3c2.3-4.2,18.3-7.1,29.2,3.8"/>
		<path id="b-7" class="st2" d="M85.4,262.7c2.5-1.5,12-2.1,16.4,3.7"/>
		<path id="b-6" class="st2" d="M56.3,253.6c2.5-1.5,10.2-2.1,13.8,6.6"/>
		<path id="b-5" class="st2" d="M56.2,259.2c2.5-1.5,8.1,2.4,7.9,4.5"/>
		<path id="b-4" class="st2" d="M36.1,244.1c7.7-4.4,15.5,3.8,15.4,7.8"/>
		<path id="b-3" class="st2" d="M34.8,249.3c3.1-1.9,11.5,1.2,11.9,7.8"/>
		<path id="b-2" class="st2" d="M32.3,256.2c3.4-0.7,8.9,0.5,9.4,6.1"/>
		<path id="b-1" class="st2" d="M30.5,262.8c3.4-0.6,6,0.3,5.9,4.3"/>
		<path id="b-70" class="st3" d="M118.9,229.9c-9,1.2-20.2,16.2-25.2,12.9c-4.1-2.7-1.2-17.8-6.9-11.4c-8.4,9.5-18.3,22.1-18.7,11.1
			c-0.3-11.4-0.5-14.5-0.9-18.4c-1-10.1-16.3,13.2-21.5,14c-4.3,0.6-4.2-4.4-3.5-8.5c1.6-9.5-4.8-4.8-9.4-7.3
			c-3.5-1.9-2.1-10.4-1.2-20.7c0.7-7.8-15.9,14.8-16,3.1c-0.1-7.8,2.9-14.5,0.4-25.1"/>
		<path id="b-71" class="st3" d="M189,230.2c-4.2,12-10,22.2-14.3,12.2c-4.5-10.4-7.8,5.7-11.4-4.5c-1.7-5-5.5,11.1-10,13.7
			c-3.8,2.2-8.5-4-9.4-8c-2-9.4-9.7,0.3-14.9-0.4c-4-0.5-9-8.6-11.9-18.4"/>
		<path id="b-shape-1" class="st1" d="M15.9,199.7c-0.2,2.2-0.3,4.5-0.1,6.7c0.2,4,6.7,0.3,7.5-1.1
			C25.1,202.1,16.9,195.6,15.9,199.7z"/>
	</g>
</g>
</svg>
